<svg xmlns="http://www.w3.org/2000/svg" viewBox="0 0 607.67 481.92"><defs><style>.cls-1{fill:#999;}.cls-2{fill:#4d4d4d;}.cls-3{fill:#d9e021;}</style></defs><title>logotype</title><g id="Layer_2" data-name="Layer 2"><g id="logo"><g id="logotype"><path class="cls-1" d="M426.17,0H354.91V74h-60L268.67,0h-102l-133,375h107l23.44-74H290.25l-15.08-50.84-5-17.5L229.53,92h-18l45.14,158.16L266,283H151.06l-23.38,74h-69L179.17,18h77l26.17,73.77.11.23h72.46V301h61.26c54,0,102.5-55,102.5-113.5S470.17,74,416.17,74H372.91V18h53.26c97,0,163.5,72.58,163.5,169.58s-66.5,169.54-163.5,169.54l-118.86.16L312.17,375h114c108.5,0,181.5-81,181.5-187.5S534.67,0,426.17,0Zm-10,92c47.5,0,84.5,48.5,84.5,95.5s-37,95.5-84.5,95.5H372.91V92Z"/><g id="outlines"><path class="cls-2" d="M42.57,460.55v-5.13l7.7-.86-5.07-15H19l-5,15,7.61.86v5.13H0v-5l4-1c1.5-.38,2-.67,2.35-1.8l20.67-60.9H38l21,61c.37,1.14,1.13,1.33,2.25,1.62l4.23,1v5.13ZM32.23,399.18,21.14,432.62h22Z"/><path class="cls-2" d="M69,460.55v-5.13l28.1-37.34H78.46c-.75,0-.94.57-1,1.24l-1.13,6-6.39.38v-14H107.5V417L79.59,454.18H99.42c.84,0,.93-.66,1-1.23l1.13-7,6.48-.29v14.92Z"/><path class="cls-2" d="M113.89,460.55v-5.13L142,418.08h-18.6c-.75,0-.94.57-1,1.24l-1.12,6-6.39.38v-14h37.58V417L124.5,454.18h19.83c.85,0,.94-.66,1-1.23l1.12-7,6.49-.29v14.92Z"/><path class="cls-2" d="M198.36,457.7c-3.57,2.38-9.86,4-16.07,4-16.06,0-22.92-10-22.92-25,0-18.05,10.33-25.93,24.61-25.93a34.28,34.28,0,0,1,14.29,2.94v12.64l-6.3-.29-1.13-6.27a1.39,1.39,0,0,0-1.12-1.33,21.37,21.37,0,0,0-6.39-.85c-8.37,0-15,4.94-15,18.52,0,13.3,6.2,18.43,15.32,18.43a24.94,24.94,0,0,0,12-3.13Z"/><path class="cls-2" d="M236.51,460.55l-.84-6.17-.29-.1c-4.51,4.27-9.77,7.41-17,7.41-11.75,0-13.25-8.17-13.25-13,0-9.5,5.82-14,17.1-14.91l12.68-1.05v-5c0-6.94-1.31-10.36-9.49-10.36-5.73,0-9.86.19-10,7.32l-8.08-.86c0-11.68,10.71-13,18.14-13,13.34,0,17.85,3.8,17.85,16.91v25.17c0,1.53.09,1.71,1.5,1.9l4.8.67v5.13Zm-1.6-21.85-10.61.95c-8.08.76-10.34,3.13-10.34,8.07,0,5.13,2.16,7.22,6.58,7.22,5.54,0,11.46-4.56,14.37-7.31Z"/><path class="cls-2" d="M286.78,458.75a35.42,35.42,0,0,1-13.06,2.94c-9,0-13.06-4.27-13.06-12.83V419.22c0-.57,0-1-.75-1h-6.86v-5.51c7.33-.95,9.4-3.89,10.62-13.58h5.54v11.59c0,.57,0,1,.75,1h11.82l2,6.55H269.21v28c0,6,1.41,8.26,6.77,8.26a24.45,24.45,0,0,0,8.73-1.89Z"/><path class="cls-2" d="M315.07,460.55v-5.13l5.92-.67c1.31-.19,1.5-.47,1.5-1.9V399.56c0-1.43-.19-1.81-1.5-1.9l-3.44-.83-1.48-5.06h27.09c23.59,0,33.73,12.82,33.73,33.34,0,21.1-11,35.44-35.33,35.44Zm26.4-6.94c17.95,0,26.5-10.26,26.5-27.26,0-21.19-9.4-27.74-25.94-27.74h-10.9v55Z"/><path class="cls-2" d="M423.41,457.42a34.09,34.09,0,0,1-17.1,4.27c-17,0-22.55-11.31-22.55-25.46,0-17.39,9.58-25.46,21.42-25.46,11.46,0,19.36,6.27,19.36,22.7,0,1.24-.1,3.14-.19,4.75H392.78c.28,9.6,4.13,16.16,14.37,16.16,5.26,0,8.55-1,13.53-3.42ZM416,431.67c-.19-10.83-5.08-14-10.81-14-6.3,0-11.56,3.42-12.31,14Z"/><path class="cls-2" d="M458.83,425.3l-1.12-5.89c-.1-.66-.19-1-.94-1.23a24,24,0,0,0-7.33-1.05c-6.86,0-10,3-10,7.13,0,5.41,5.63,6.55,11.74,8.17,7.33,1.9,15.32,4.18,15.32,14.44,0,11-9.12,14.82-19.08,14.82-7.61,0-15.31-2.19-17-3.23V445.82l6.29.39,1.13,6.55a1.39,1.39,0,0,0,1.13,1.33,26.34,26.34,0,0,0,9.2,1.52c6.3,0,10.34-2.38,10.34-7.51,0-5.7-5.35-7-11.37-8.45-7.33-1.71-15.6-3.61-15.6-14.06,0-10.83,9-14.82,18.7-14.82a42.85,42.85,0,0,1,14.85,2.66v12.25Z"/><path class="cls-2" d="M472.27,460.55v-5.22l6.2-.58c1.32-.09,1.51-.47,1.51-1.9v-32.3c0-1-.29-1.71-1.23-2l-5.35-1.81.84-5h14.29v41.13c0,1.53.09,1.71,1.5,1.9l6,.67v5.13ZM483,401.17c-3.85,0-6.1-2.18-6.1-6.08s2.25-6,6.1-6,6,2.18,6,6S486.84,401.17,483,401.17Z"/><path class="cls-2" d="M537.76,418.46a14.84,14.84,0,0,1,3.48,9.88c0,11.21-8.55,17.48-19.54,17.48a23.37,23.37,0,0,1-8-1.14L509.48,453l11.56.66c16.91.95,24.52,1.81,24.52,13,0,9.41-8,15.29-24.33,15.29s-21.9-4.46-21.9-11.68c0-4.66,2.54-7.41,5.73-10.74-2.63-.85-4.13-2.56-4.13-5.12,0-1.62.75-3.24,2.07-5.23,1.5-2.19,3.47-4.56,5.17-6.84-4.14-2.28-7.05-7-7.05-13.49,0-10.64,7.61-18.05,20.39-18.05a32.2,32.2,0,0,1,8.36,1H546.6v6.08ZM511.92,461c-1.69,1.81-4.13,4.56-4.13,7.89,0,5.13,5.26,6.27,14.47,6.37,5,0,14.56-.77,14.56-8,0-4.46-3.66-4.84-9.77-5.41Zm9.78-43.32c-6.86,0-11.75,3.42-11.75,10.83,0,5.61,3.2,10.17,11.46,10.17,7.05,0,11.47-4.18,11.47-10.74S528.74,417.7,521.7,417.7Z"/><path class="cls-2" d="M581.27,460.55v-5.22l4.51-.58c1.22-.09,1.69-.57,1.69-1.9V430.34c0-6.18-1.22-12.16-8.17-12.16-5.36,0-10.43,2.66-14.57,6.08v28.59c0,1.53.1,1.71,1.51,1.9l5.26.67v5.13H550v-5.22l4.7-.58c1.31-.19,1.5-.47,1.5-1.9v-32.3c0-1-.28-1.71-1.22-2l-5.36-1.81.85-5h12.31l.75,5.6.28.1c4.89-3.52,10.62-6.65,17.39-6.65,10.8,0,14.84,7,14.84,17.38v24.7c0,1.53.1,1.71,1.51,1.9l5.35.67v5.13Z"/></g><path id="fill" class="cls-3" d="M416.17,92c47.5,0,84.5,48.5,84.5,95.5s-37,95.5-84.5,95.5H372.91V92Z"/></g></g></g></svg>