<svg xmlns="http://www.w3.org/2000/svg" viewBox="0 0 2147.57 685.12"><defs><style>.cls-1{fill:#d7d6d6;}.cls-2{fill:#929090;}.cls-3{fill:#747475;}.cls-4{fill:#575858;}.cls-5{fill:#2d2e2d;}.cls-6{fill:#231f20;}.cls-7{fill:#010101;}.cls-8{fill:#fff;stroke:#fff;}.cls-8,.cls-9{stroke-width:0.25px;}.cls-9{fill:#919190;stroke:#919190;}.cls-10{fill:#5f6161;}.cls-11{fill:#333332;}.cls-12{fill:#232323;}.cls-13{fill:#6a6a6a;}</style></defs><title>teens</title><g id="Layer_2" data-name="Layer 2"><g id="Layer_1-2" data-name="Layer 1"><path d="M1122.13,221.72S1115.78,224,1111,234c-2.86,6-1.87,10.67-1.87,15.72a83.33,83.33,0,0,0,1.15,11.68s-4.76.87-6.93,3-4.75,3.31-9.51,4.9a17,17,0,0,1-10.53,0c-2.3-.58-3.6-.29-2.59.58s3.31,2.74,3.31,2.74-5.62,1.44-10.38,11.68-9.37,22.92-10.53,25.66-2.3,5.63-1.44,6.92a12,12,0,0,0,5.34,5.05c3.31,1.59,10.24,3.18,14.85,4.33s6.49.72,6.49.72.43,7.5,3.17,11.68,3.9,4.47,3.46,5.91-2.3,2.45-1.3,5.48a8.81,8.81,0,0,1-1,8.37c-1.88,3-3.18,11.68-2.46,15.28s-1.73,9.38-1.73,9.38a95.72,95.72,0,0,1-17.73-.73c-7.79-1.29-11.54-2.3-20.48-3.31s-20.76-1.16-26.39,3.46-7.64,9.23-6.92,14.71.58,9.52,4.18,13.26,6.49,5.92,9.66,6.93a151.19,151.19,0,0,1,16.3,6.49c4.61,2.3,9.37,2.88,13.41,6.49a24.51,24.51,0,0,0,7.35,4.75s-3.6,1.88-12.4.29-12.83-6.2-22.64-1.15-9.08,11.68-8.5,17.16,5.19,9.37,11.24,10.52,13.56-.72,19.47-1,15.86-1.15,19.76-.86,4-1.58,4-1.58,7.07.28,8.37.28,6.77,1.44,8.5.58,5.77-.14,8.22-1.88,8.22-1.58,8.22-1.58,3,9.08,5.91,7.06a77.67,77.67,0,0,1,8.08-5.33,82.23,82.23,0,0,1,8.22-4s6,1.44,9.8-.14,6.35-1,9.09-.72,6.2.28,6.2.28a84.22,84.22,0,0,1,12.69.72c4.76.87,5.91,2.74,9.23,4.19s8.94,1.59,10.67.14,2.59-1.59,2.59-3.46-2.59-11.1-5.19-16.44-3.75-7.93-3.75-7.93,7.93-4,10.38-5.34,6.2-.57,9.52-3.17,7.93-8.36,10.67-15.28,3.46-8.08,1-15-9.23-10.67-15.14-11.1a83.88,83.88,0,0,1-12.26-2l-1.73-48.45s4.84-3.71,5.74-4.17c.58-.28,3.08-1.12,2.91-1.74-.28-1.12-1.87-14.42-4.47-22.5s-4.75-15.86-7.35-20.62-4.76-5.48-4.76-5.48,3-.72,2.74-1.3-2.45-.29-4.61-1-5.91-2.16-5.91-2.16a91.41,91.41,0,0,0-1.88-22.64c-2.6-12.4-8.65-24.51-15-30.14s-14.7-6.2-22.92-4.76A13.65,13.65,0,0,0,1122.13,221.72Z"/><path class="cls-1" d="M1119.25,387s-1.73-2.16-11-2.45-34.18,7.64-34.18,7.64-.29,1.16-1.15,5.91,1.44,13,1.44,13,5.48-5.33,8.08-6.78,16.29-11.53,23.21-14.7,9.66-3,10.82-3A13.06,13.06,0,0,1,1119.25,387Z"/><path class="cls-1" d="M1132.37,389a99.09,99.09,0,0,1,14.56-8.07c9.09-4.19,15-6.35,23.22-6.21s10.09.73,10.09.73l3.18,13.69-.87.58v7.93s-5.91-3.6-19.61-6.63-21.49-4.47-24.8-4A15.29,15.29,0,0,0,1132.37,389Z"/><path class="cls-2" d="M1124.15,401.68s3.17-6.34-2.31-13c-3.91-4.74-10.81-2.6-22.2,3.75S1074.55,409,1074.55,409l-.15,2s18.6-14,25.67-17.73,17.16-10.24,21.63-3.46,1.44,10.81,1.44,10.81Z"/><path class="cls-2" d="M1124,399.52s3.74-8.37,8.07-11.11,17.74-4.32,33.31-1.87,18,2.59,18,2.59v1.45s-19-4.33-30-4.33-12.25.58-12.25.58a109.47,109.47,0,0,1,24.51,4.32c14.13,4,17,5.91,17,5.91v1.59s-2.46-2.59-17.6-6.35-23.36-5.47-27.25-4.9-7.07,3.9-9.09,7.36a38.65,38.65,0,0,1-4.75,6.34Z"/><path class="cls-3" d="M1194.52,325.4s-.39.09-2.31.72a46.24,46.24,0,0,1-10.24,2.3c-9.66,1-11.82,0-11.82,0s1.73,13.13,3.46,19.76,3.75,13.85,4.33,16a8.7,8.7,0,0,1,.28,3.6s-8.36,7.36-16,11.11a144.24,144.24,0,0,1-17.16,7.2c-2.74.87-4.18,2-4.9,3.47s-3,3.17-5.05,4.18a14.56,14.56,0,0,0-3.89,3.31s-4.47.58-6.64.58-3.46-1.73-4.47-2.3a4.87,4.87,0,0,0-2.16-.58,76,76,0,0,1-6.06-4.61c-1.87-1.73-2.88-1-3.6-.29l-.72.72s-2.17-1.73-3-.58,1.44,2.74,3,4.33,6.49,4.61,8.36,6.34,1.88,2.74,3.75,3.17a13.54,13.54,0,0,0,2.6.44s4.47,3.6,6,3.75,2.74-1.59,3.61-2.17l.86-.57s.72.86,3.61-.29,9.66-4,12.69-4.19,6.2-1.58,9.22-3.6a192.43,192.43,0,0,1,18.32-9.66,139,139,0,0,1,15.14-5.63c4.47-1.29,5.62-2.16,6.63-7.49a53.78,53.78,0,0,0-1-21.63c-2-7.79-1.15-11.83-1.87-18.89S1194.52,325.4,1194.52,325.4Z"/><path class="cls-3" d="M1066.11,321.3s-3.1,10.3-3.53,17.22-3.17,15-2.74,20.19-.58,10.38,1.87,13.26,7.07,4.18,17.31,5.19,19.89-1.72,21.91-2.16,3.32-1.44,4-.43,1.88,2.74,5.77,5.19,5.34,2.88,6.92,4.18,5,4,6.35,5.34,4.75,3.6,5.62,2.16.14-2-1.59-3.46a93.68,93.68,0,0,1-6.77-6.49c-1.59-1.73-1.45-2.45-1.45-2.45a17.84,17.84,0,0,1,4.91,4.33c2.45,3,5.48,7.21,6.77,7.06s2.89-1.15,2.31-2.59-2.88-3.46-4.18-5.2-4.47-5.47-5.05-6.19-.72-1.88,0-1.45,4.33,4.62,6.06,6.35,4.33,5.91,5.91,5.91,3.17-.58,3.17-2-2.3-2.89-3.75-4.76-3.46-5.19-4.32-6.05-1.88-2-1.88-2a17.57,17.57,0,0,1,4.76,3.89c2,2.45,5.19,8.36,6.49,8.8s3.32-.58,2.31-2.6a27.82,27.82,0,0,1-1.44-3.32s2.3.73,3.46-.14,1.29-2,.14-2.74a26.65,26.65,0,0,1-4.61-3.32,9.58,9.58,0,0,0-3-2.16c-1.3-.72-3.46-1.58-3.46-1.58s-2.45-3.18-4-4.76-5.34-1.59-8.36-2.17-6.35-.57-8.37-1.73-6.63-1.87-8.5-1.87-5.63-.43-7.65,0-3,.87-8.07,0-7.21-2.45-7.21-2.45a33.89,33.89,0,0,1,1.87-8.37c1.45-3.46,4.47-16.43,4.91-18.89s.57-3.46.57-3.46a38.85,38.85,0,0,1-13.41-1.29C1068.78,322.22,1066.11,321.3,1066.11,321.3Z"/><path d="M1254.29,341.45s-.44-8.47,4.78-10.51,16.17,7.18,16.17,7.18l-5.24-.38s-5.68-6-9.3-4.39-2.78,8.08-2.78,8.08Z"/><path d="M1247.11,347.38a32.5,32.5,0,0,0-13,20.38,129.39,129.39,0,0,0-2.82,28.51c0,4.91-6.14,16.08-4.13,25.24.29,1.33-7.48,11.84-3.19,18.37s6.6,7.49,8.9,9.79,10.16.92,10.16.92l-.34-2.95a14.54,14.54,0,0,1-7.54-.28c-3.61-1.3-4.63-5.08-6.26-7.51-3.3-4.9-2.34-8.17.27-11.14s6.86-4.62,9.11-12.82,3.49-22.62,4.13-26.23-1.08-19.65,4.79-26.56S1247.11,347.38,1247.11,347.38Z"/><path d="M1239.67,360.21s-7.2,3.29-6.85,10.5-4.55,16.39-5.53,17.37,1.65,2.62,1.65,2.62a27.74,27.74,0,0,0,3.91-7.21,86.09,86.09,0,0,0,3.25-10.17C1237.07,370,1239.67,360.21,1239.67,360.21Z"/><path d="M1239.9,440.9c-.48-5.92-1.35-13.71-2.15-22.73-.46-5.19-.89-10.79-1.2-16.69-.44-8-.65-16.47-.44-25.21.65-26.44,13.6-33.49,13.6-33.49s11-6.78,16.68-6.64,13,.14,21,6.45c6.58,5.21,7.48,14.64,7.48,14.64a59.13,59.13,0,0,1,4.32,4.43c1.23,1.37,1.06,4.57,2.41,6.42s4.33,2.5,5.54,4.76a31.14,31.14,0,0,1,3.38,9.61c1.52,9.79-1.47,12.91-1.47,12.91s1.15,5.13,2.18,12.47c.45,3.2,3.42,6.82,3.72,10.63.27,3.29-2.1,6.71-2.1,10.11,0,1.67,0,3.33-.11,5-.24,4.74,3.54,11.68,2.36,15.05-2.09,6-10.09,7-14.69,8.92a41.44,41.44,0,0,1-11.81,2.46,209.23,209.23,0,0,1-22.91.33C1250.58,460,1241,454.85,1239.9,440.9Z"/><path class="cls-4" d="M1251.51,377.93s6.14-13,16.16-16.11,19.11-2.65,23.31-2.68a17.55,17.55,0,0,1,7.59,1.83,4,4,0,0,1,.82.94,4.37,4.37,0,0,1,.56,1.33s-2.2-2-9.66-2-15.62.78-22.61,2.92-9.28,7.55-10.92,10.31a9.93,9.93,0,0,1-2.31,3Z"/><rect class="cls-4" x="1290.46" y="401.73" width="12.59" height="6.29" transform="matrix(1, -0.09, 0.09, 1, -30.88, 117)"/><path class="cls-4" d="M1271.25,377.89a33.82,33.82,0,0,1,16-6.18c8.73-.92,14.48-.71,17,0s2.94,1.18,2.94,1.18l.83,1.72s-3.7-2.65-14.62-2c-11.44.74-14.64,3.41-17.34,4.79C1274.86,378,1271.25,377.89,1271.25,377.89Z"/><path class="cls-4" d="M1272,432.61s-2.73-14.22,5.26-16.63c6.82-2.06,26.65-5.48,31.4-3.71s5.35,2.64,5.35,2.64l-.6-2.07s-3.87-2.95-10.39-2.32-19,2.46-24.58,3.68a10.41,10.41,0,0,0-8.26,8.64,28.16,28.16,0,0,0,0,9.48Z"/><path class="cls-5" d="M843.63,139.89a3.31,3.31,0,0,1-.51-.3c0-.07.31,0,2,.67a50.52,50.52,0,0,0,5.49,1.86s3.67-5.29,5.87-6.19,5.66,1.66,8.21,3.87,1.81,4.39.71,6.22a23.63,23.63,0,0,1-3.49,4,38,38,0,0,1,7.84,4.23c2.73,2.21,2.73,2.94,4.92,4.05s3.65,2.21,4.92,5.87a13.91,13.91,0,0,1,.15,7.49s-.58,6.58,1.79,10.07,2,4.94,3.8,9,1.07,5.31,1.07,5.31,5.85.57,6.94,3.87.32,8.59.67,13-2.79,13.52-3.54,16.62-1.52,13-5.94,22.1-6.65,15.52-10.5,19.52-8.25,5.09-10.81,4.71-9.87.69-12.6-1.88-7.67-3.32-9.31-3.87-8.95-1.87-8.95-1.87l-11.64-16.51s-3.93-23.41-3.55-24,10.47-58.28,10.47-58.28l15.57-29.79Z"/><path d="M762.28,93.67a3.29,3.29,0,0,0,.9,3.48c1.64,1.28.72,1.46.72,1.46s-1.12,4.2-.57,6.4a20,20,0,0,1,.34,5.12s-5.89,11.13-7.92,13.68-6.07,10.21-7.92,15-5.73,14.61-5,19.54-12.35,69.44-8.38,83.34-1.93,25-1.61,34.92S726.15,299,729,319.71s6.83,28,8.24,41.34,6.94,47.95,8.19,53.25-1.15,13.52-.07,17.91,7.07,14.11,9.42,19.43,4.65,26.53,5,36.58,2.67,15,2.47,17.2-4.39,2.18-6.41,4.91.34,6.77.33,8.23a1.86,1.86,0,0,0,1.27,1.83s-3.49,4-6.79,7.47-3.69,6.2-3.69,6.2-4.59,7.12-10.09,9.47-16.28,3-19.41,6.32-2.41,8.58.69,10.24,17.36,2.45,26.14,1.38,16.11-4.87,22.51-4.47,24.68-1,27.07-3.18.59-9,.59-9,1.29-4.74,2.58-6.2.93-4-.71-6.22-5.65-3.87-3.26-6.05,3.13-5.65,3.69-8.39-1.74-20.85-2.27-27.08,1.23-29.25.35-40-4.86-18.31-3.37-24,3-9.13.61-14.62,3.33-9.68.79-14.08-5.28-7-3.81-9.34a11.81,11.81,0,0,1,2.21-2.92s6.09,30.56,13,38.82,9.83,11.37,12,14,1.25,7.49,4.15,14.27,3.74,25.43,4.81,30.56,2.47,20.85,2.63,27.25-3.74,19.73-1.19,24.31A12.86,12.86,0,0,0,833.2,541s-1.69,11.69-10.12,17-15.21,7.8-17.05,10-1.49,7.68.88,9.15,22.48,2.84,33.09,1.42,24.15-3.93,25.07-7a39.53,39.53,0,0,0,.95-8.59s5.66,2.22,5.12-.71-3.43-9.52-3.6-12.63,2.44-16.26,2.27-17.36.1-26.33-3.87-38.59-7.71-36.43-8.05-42.46-6.28-30.56-8.08-36.23-5.4-20.86-6.83-27.27-6.51-18.13-4.47-25.62.28-23.95-.07-28-3.45-6.6-2.89-9.15-.3-15,3.56-21.38,3.18-17.36,1.93-23-5.24-15-5.24-15,1.82.56,1.1-1.83a98.07,98.07,0,0,1-2.7-11.16c-.71-4.21.6-12.43-1.22-14.63s1.15-11.51,2.82-18.45,6.57-42.4,7.16-50.62,2.85-26.32-1-36.57-10.32-23.81-10.32-24.55,3.31-4.92,0-8a30.73,30.73,0,0,0-8.21-5.15s-4.71-8.25-10.19-10.29-5.85-.38-7.85-2.22-1.82-4-5.46-5.15-5.48-.75-5.48-.75a99.55,99.55,0,0,1,3.36-18.82c2.59-8.39,3.92-19.54-.26-26.69s-5.63-9.17-10-10.1-6-5-12.6-5.72-8.95-.22-13,2-9.34,4.53-12.46,6.16-4.41,5.84-5.7,8.21-.2,3.84.16,5.48,3.09,2.94,3.09,2.94a6.59,6.59,0,0,0-1.67,5.67c.54,3.66-1.13,7.49-.4,9.87s1.63,3.11,1.07,5.3-.22,8.59,1,12.8,3.81,7.52,4,11,0,6.58,2.7,8.43a14.28,14.28,0,0,0,4.75,1.3C760.63,93.84,762.28,93.67,762.28,93.67Z"/><path d="M713.34,359.28l15.44-36.85,135.45,14S880.46,297,883,292.6s12.12-16.41,12.12-16.41l14.1,7.58a11.39,11.39,0,0,1-5.92,4.91c-4.09,1.43-6-.6-7.8,1.91s-14.49,30.74-21,47.93-39.88,101.79-39.88,101.79L820.28,455l40.18-109.34-32-3.09L739.74,332l-6,14.94-6.46,16.54Z"/><path d="M879.69,270c12.15-.8,19.45-2.75,26.61-2.42,7.75.35,21.11,2.56,20.79,9.63s-2,19.32-26.5,15.22-16.82-6.71-24-9.32-8.69-2.9-13.91-5.44-12.71-4.79-8.71-9C856.62,265.76,862.42,268.25,879.69,270Z"/><path d="M711.17,263.1c.94.8,1,1.45,3.73,1.8s2.47,1.2,2.47,1.2,1.49-2.67,2.85-2.38,2.3-.35,2.46,1a15.21,15.21,0,0,1,.13,2.29,11,11,0,0,1,3.22-.54c1.36.06.25-.45,2.51.11s2.7.81,3.34,1.76-1.09,3.83-1.43,6.33-.15,3.18-1.85,5.39-.87,3.84-3.54,2.35L722.39,281l-1.51-1.9s-2.14,2-3.72,1.43-2.71-.58-3.57-1.76a10.14,10.14,0,0,1-1.26-2.35s-1-2.55.57-2.48a2.15,2.15,0,0,0,2.11-1.27,3.2,3.2,0,0,1-3.36-1.31c-1.52-1.89-3.06-2.49-4.4-3.62S710.23,262.3,711.17,263.1Z"/><path d="M752.52,271.37s-3.56-2-10-.91-6.09,3.37-11.27,1.76l-5.17-1.61-.38,8.2s5.37,2.53,10.45,1.17,8.33-2.36,12-1.51l3.61.85Z"/><path d="M844.07,502.25l-.78-1.89c.08,0,7.8-3.19,20-8.43,3.84-1.65,9.48-3.68,15.44-5.81,11.15-4,28-10.07,28.9-12.95,1.36-4.41,1-8-1.13-10.68-1.6-2-10.83-1.48-19-1-1.55.1-3.12.19-4.69.27-6.38.34-16.62,1.12-24.86,1.75-7.15.55-10.91.84-11.5.81l.1-2.05c.54,0,5.74-.38,11.25-.8,8.24-.63,18.5-1.42,24.9-1.75q2.35-.12,4.68-.27c11.43-.68,18.55-1,20.7,1.78,2.55,3.24,3,7.46,1.48,12.56-1.11,3.59-12.67,8-30.17,14.26-5.93,2.13-11.53,4.15-15.32,5.77C851.88,499.05,844.14,502.22,844.07,502.25Z"/><path d="M877.14,332.08a8.51,8.51,0,0,1,.34,4.6c-.49,2.73,2.42,11.3,4.33,17.62S918,465.47,920.09,467.22s6.54,5.44,8.11,7.16,1.33,3,1.33,3a2.31,2.31,0,0,1,.77,3.16,2.92,2.92,0,0,1-3.19,1.68,6.34,6.34,0,0,1-4,2.94c-2.59.43-6.19-1-13.89-1.19s-73,12.66-73,12.66l-2.42-6.95S891.78,480.59,898,480s11.63-1.66,13.91-3.21,4.84-5.46,2.15-10.91S873,342.71,873,342.71Z"/><path d="M872.43,338.83l19.9,121.61,6,1.74L896.75,472s-7.21,1.32-10.48.62-4.15-1.47-4.15-1.47l-50.18,15,.32-6.82s48.26-13.21,49.41-14.44,2.31-2.46,3.29-3.7l1-1.24-17.4-112.14Z"/><path d="M910.31,471.65c-.86,6.31-5.18,10.94-9.65,10.33s-7.39-6.22-6.53-12.53,5.18-10.95,9.65-10.34S911.18,465.34,910.31,471.65Z"/><path d="M928.3,477.67c-.86,6.33-5.59,10.9-10.57,10.22s-8.3-6.35-7.44-12.68,5.59-10.89,10.56-10.21S929.16,471.35,928.3,477.67Z"/><path d="M652.36,468.16c0-.76,45.42-90.21,48.5-95.72s5.25-8.21,7.63-9.89a9.67,9.67,0,0,1,4.19-1.86s3.57-5.22,4.85-5.16,8.12,1.9,8.12,1.9-1.29,5.85-.61,7.67,3.92,9.18-1.45,20.45c-5.28,11.05-47.48,90.11-47.34,92.68s-.43,9.47-4,9.56-4.92-4.58-2.73-7.56,2.26-4.52,3.92-7,38.78-83.89,41.42-91.2,3-10.07,2.53-11.63a4.47,4.47,0,0,0-1.94-2.4s-3.87.59-8.42,10.38-49,89-50.85,91S652.36,468.16,652.36,468.16Z"/><path d="M643.16,582.64l12.52-66.31-29,63.64-15.4-8.05,21.29-58.1-37.25,46.6-12.48-13.68,42.94-35.67-50,20.18-4.21-19.87.33-.18,48.74-27.46-3.89.75c-47.57,9.11-47.87,8.76-48.2,8.39l-.19-.21.08-.29c.22-.8,1.34-14,2-22.62l0-.57L627.23,480l6-3.38L574.07,450.5l6.48-16.56L636,457.62l-7.31-15.5-33.93-25.74,32.5-32.64.14,0,34-8.87,5.07,39.4,11.3-39.07L689,377.38l-18.62,66.69,1.48,11.55,30.83-19.51,21.28-39.31,17.46,16-38,24-14.8,27.33,53.89-33.9,13.65,33.65-7.3,21.75.83.14L746,494l-10.31,30.68-45.8-19.58,6.87,13.52,29.55,21.69-.2.39c-4.29,8.43-10.75,21.17-11,21.76-.1.26-.38,1-35.52,13.29l-.56.2-14.45-79.36-3.14,6.91.52,78.61Zm14.3-70.22-13.05,69.16,16.57-.44-.49-75.4Zm-44.86,59,13.64,7.13,30.23-66.45,2.74-14.5-20.12,8.11-4.47,5.58Zm53.19-74.27,14.09,77.46C693.16,570,712.68,563,714.27,562c.81-1.76,9.08-18,10.77-21.34l-27.21-20,16.64,32.76-18.77,14-12.59-57.57Zm18.57,13.63,12,54.9,16.8-12.56L696,519.34Zm-100,36.05,10.95,12,38.42-48.05,1.24-3.41-6,2.43Zm-11.62-34.93,3.8,17.93,51.87-20.92,8.62-7.16,6.44-17.57-12.61-2.41c-2.3.45-4.66.89-7,1.36Zm116.47-8.2,45.9,19.63,6.45-19.18-.35.79L695.12,485.1l-13.24,4.2ZM684,509.29l10.94,8-6.51-12.8-6-2.58Zm-47.78-2.43-.52,1.41,1.42-1.77Zm.08-3.18-4.8,4,3.92-1.59Zm24-6.53-2.08,11,2.22-4.89,0-6.19Zm5.18-1.45,17.26,12.67-1.52-6.93-14.69-6.28,1.16-1-2.32.94Zm-27.63,6.68-1.16,3.19,1.72-.7,7-8.8Zm11.5-9.55-9,11.26,19.05-7.68.64-3.43-5.77-4.24Zm32.76,7.87,5.58,2.39-6.84-13.48-1.09.35Zm-37.66-16.32-5.9,16.08,10.07-8.35,3.78-4.74-1.21-.89.52-.7Zm17,12.33,0,4.38,2.42-5.31-.06,0Zm35.16-12.08,44.07,19,4.41-9.95,2.42-7.19-36.88-6.29Zm-28.12,10.23,12.5,5.35-2.17-9.94-6.63,2.1-1.44.58Zm-97-24.46c-.29,3.57-1.5,18.27-1.94,21.63,4-.37,29.28-5.13,53.94-9.87l2.38-1.34Zm90,23.57v1.63l1.42-.58Zm0-1.28,2.56,1.89.27-.11-1.09-6,2.42-2.36-2-6.18-2.16,11.45Zm5.34-6.27,1.05,3.22-1.89,4.15,4.28-1.72,5.06-4.3-2.76-7Zm-2.5,2.44.8,4.35,1.65-3.63-.77-2.36Zm-9.14-.79,5.16,3.8.11-.57,0-2.49.68-5.68-3.69,3.08,2.58,1.14-3.21-.62Zm22.92-1.32L673,491l5.6-1.78ZM653.27,488l-.71.89.9-.75Zm25.58-2.38.73,3.35.84-.26Zm-24.94,1.58.36.26,1.16-1-.84-.16Zm24.65-4.42,2.85,5.62,12.27-3.9-13-5.61Zm-26.46,3.08,1,.73.38-.46Zm25.86-2-1.63,3,2.21-1.88Zm-22.57,1.48.93.41,6.07-5,0,.15,1-5,3.09,9.5,5.69-5.56L669.39,473l-4.5-1.92.47,2-10.77.63L653,468.76l-1.43.91-.26.93,2.85,5.63,9.63-1.89,3-.58L656,480l1.41,2.77ZM673.31,480l2.35,5.93,1.74-3.22-1.59-3.13-1.84.81-.12-.92Zm-22.73,3.16,3.84,1.7,1.79-2.24-1.07-2.13Zm-1.68,1,2.42.46-1.83-.81Zm-4-.78,3.63.7-.42-.9-2.71-1.2Zm-11.27-2.15,10.25,2,.59-1.63-3.84-1.69Zm15.24,1.17.6.26,5.25-3.07-1.13-2.24-6.5,1.26Zm-21.41-1.32-.77.44,1.51-.29ZM681.15,478l14,6,13.25-4.21-23.94-4.07-2.8,1.25Zm-35.44,3.08,1.68.74-1.1-2.33Zm-16.92-.71,2.07.4,8.07-1.57-4.52-2Zm84-.83,35.08,6L755.08,464l-6-14.73,2.6,17.94Zm-70.43.05,2.45,1.07.6-1.66Zm34.41-.37,1.25,2.46,1.72-3.19-.68-.29Zm-41.22-2.64,5.18,2.28,4.85-.94-2.61-5.52Zm19.06.63,1,1.92,5.42-3.18Zm16.65-2.36L672.9,479l.79-.77-.32-2.51Zm3.54,3.79,0,.32.53-.23-.22-.43Zm-25.94-7.23-.9,3.6-1,2.64,6.09-1.19-2.9-5.73.06-.21Zm26.61,5.25.83,1.65,1.48-.66Zm-31.61-4.77,2.35,4.95.77-2.13,1-3.95,2.71-1.72.33-1.12h-.06ZM575.38,450l59,26.07,8.15-4.59L636.64,459,581.12,435.3Zm110.78,25,24.39,4.15,40-12.69-2.76-19Zm-11.7,1.22.15,1.14.76-.75Zm-.15-1.17,4.71,2,1.93-.86.52-1-7.3-1.24Zm-1.38-.6.28.12L671,457.35l-5.33,3.36L663.92,467l.17.72Zm10.12,0,1.29.22,63.55-28.41L742,431.77,687.63,466Zm-7-1.19,5.91,1,3.87-7.16Zm-22-4.3,1.22,3.65,8.77-.52-.36-1.5-.72-.31-.43,1.55ZM672,456.74l2.14,16.57,12.77-8L701.64,438Zm-33.89,2.89,5.34,11.31,7.41-4.18.45.15.42-1.47Zm16.21,8.3,7.6,2.59.18-.64-6.48-2.77Zm10.33,1.92,1.38.59-1.51-1.15Zm-8-3.41,5.71,2.44.28-1L658.85,465Zm-3.49-.37.38,1.13.92-.58Zm6.65-1.62,3,2.3-.87-3.67Zm-6.87.41,2.57,1.09,2.5-1.58-4-3.07Zm9.94-2.35.58,2.44,1-3.42Zm-25.45-4.28,14,6-2.15-6.45-18.85-14.31Zm16.85,2,4.66,3.53,2.77-1.75L658.09,447Zm-3.51-1.37,1.52,4.55.81-2.79ZM658.67,445l3.93,16.49,2.19-1.39L669.28,444l-3.18-24.73Zm-8.5,12.2,3.2,2.43,4.24-14.65-14.88-62.46,1-.24,14.47,60.7,7.58-26.22-5.23-40.59-32.77,8.53-31.48,31.61,31.43,23.85-17.39-36.85,17.86-12.16Zm19.45-10.56-3.54,12.64,4.77-3Zm-40.13-5.14,19.23,14.6-21.07-63.34-16,10.9Zm37.32-24.67L670,441.46l17.68-63.29-9.16-1.81Zm57.38-18.35L704.42,435l35.28-22.33Z"/><path d="M888.53,570.87l15.41-63.42-28.08,60-11.4-8.59,21.61-55-33.15,43.06L844.29,533,881,500.77,840,517.62l-6.22-12.91L832,499.84l47.25-25.75-3.12.51c-38.07,6.27-38.28,5.92-38.5,5.55l-.14-.21.09-.28c.24-.76,2.23-13.42,3.52-21.75l.08-.55,43.54,13.5,5-2.95-44.18-28.43L852,423.81l41.47,25.85L889,434.29l-24.43-26.7,28.25-29.81.11,0L920.41,371l.64,38.35,12.17-37.17,8.57,2.73-20.25,63.47.19,11.25,25.83-17.22,20-36.87L979.9,412l-31.8,21.2-13.91,25.63,45.12-29.91,7.87,33.26-7.57,20.62.64.18-3.56,7.77L966,519.8l-34.26-21.35L936,511.88l21.33,22.54-.18.36c-4.07,7.91-10.22,19.89-10.45,20.44-.1.25-.38.92-29,11l-.46.16-4.62-77.47-3,6.51-6.24,76Zm17.14-67.11-16.08,66.16,13,.46,6-72.91ZM865.5,558.41,875.6,566l29.32-62.61,3.38-13.87-16.47,6.77-4,5.16Zm48-68.95,4.5,75.6c10.81-3.79,26-14.8,27.31-15.66.78-1.65,9.38-11.64,11-14.76l-19.64-20.75,10.28,32.55L931,559l-5-56.32Zm13.42,14.16,4.77,53.69,14.24-11.24L935.31,512.5Zm-81.47,29.52L853,545.33l34.19-44.41,1.26-3.23-4.93,2ZM834.6,502.69l6.14,13.61,42.45-17.46,7.36-6.46,6.54-16.65-9.68-3-5.64.94ZM931.3,497l34.34,21.41,6.68-18.19L972,501l-34.47-21.63-10.74,3.36Zm-4.53,5.11,7.9,8.34-4-12.72L926.13,495Zm-37.26-4.87L889,498.6l1.26-1.64Zm.33-3.08-4.1,3.6,3.21-1.32Zm19.38-5-2.56,10.56,2.15-4.61.49-6Zm4.19-1.13,12.46,13.16-.6-6.78-11-6.85,1-.89-1.9.78Zm-22.23,5L890,496l1.42-.58,6.26-8.14ZM901,484.4l-8,10.41,15.59-6.42.79-3.28-4.16-4.4Zm25,9.35,4.17,2.6L926,483l-.88.28ZM897.87,476l-6,15.23,8.6-7.54,3.37-4.38-.88-.93.47-.66Zm12.27,12.8-.35,4.24,2.34-5,0,0Zm28.58-9.8,33,20.69,4.29-9.38,2.51-6.83-28.39-8Zm-22.91,8.4,9.35,5.83-.86-9.73-5.38,1.68-1.18.49Zm-74-28.79c-.53,3.42-2.72,17.57-3.35,20.79,3.14-.15,23.39-3.41,43.13-6.67l2-1.17Zm68.55,27.55-.13,1.57,1.17-.47Zm.1-1.23,1.85,1.95.22-.09-.35-5.82,2.11-2.16-1.06-6.08-2.66,11Zm4.72-5.78.55,3.17-1.83,3.91,3.5-1.44,4.33-3.89L920.15,474ZM913,481.35l.25,4.25,1.6-3.42-.4-2.32Zm-7.11-1.25,3.73,3.94.13-.54.2-2.4,1-5.45-3.15,2.77,1.93,1.24-2.47-.76Zm18.09-.05-4.33,3.88,4.55-1.43Zm-19.53-.13-.64.82.77-.68Zm20.25-.94.3,3.28.67-.21Zm-19.68.19.26.28,1-.86-.65-.21Zm19.69-2.95,1.76,5.57,10-3.1-9.74-6.12Zm-21,1.57.72.76.33-.43Zm20.46-.55-1.54,2.83,1.89-1.7Zm-17.83.23.7.45,5.18-4.55,0,.14,1.17-4.79,1.62,9.34,4.94-5.06-1.56-6.69-3.37-2.1.21,1.92-8.51,0-.86-4.84-1.2.8-.29.87,1.76,5.6,7.72-1.31,2.38-.41-8.92,5.49.87,2.75Zm14.5-4.16,1.34,5.85,1.64-3-1-3.11-1.51.69v-.89Zm-18.09,1.85,2.86,1.84,1.6-2.07-.66-2.11Zm-1.4.86,1.86.57-1.37-.88Zm-3.12-1,2.8.87-.26-.89-2-1.3Zm-8.65-2.68,7.87,2.44.6-1.53-2.87-1.85Zm11.85,1.95.45.28,4.38-2.69-.7-2.22c-1.57.26-3.32.55-5.2.88Zm-16.68-2.41-.63.37,1.2-.19Zm42.41-.19,10.48,6.59L948.4,475,930,469.74l-2.29,1.06Zm-28,1.09,1.26.82-.67-2.32Zm-13.21-1.58,1.59.49,6.47-1.08-3.38-2.18Zm65.92,3.66,27,7.64,7.5-20.42-3.44-14.56L983.4,465Zm-55.23-3.69,1.82,1.17.62-1.58Zm27,1.48.77,2.43,1.63-3-.52-.32Zm-32.1-4.76,3.86,2.48c1.33-.21,2.62-.43,3.89-.65l-1.57-5.47Zm14.9,1.62.6,1.91,4.52-2.77Zm13.25-1.39,1,4.15.68-.71,0-2.44Zm2.46,3.86v.31l.44-.2-.14-.42Zm-19.73-8.38-1,3.44-1,2.5,4.87-.82-1.78-5.7.06-.19Zm20.42,6.49.52,1.65,1.2-.56Zm-24.38-6.28,1.41,4.91.8-2,1.1-3.77,2.27-1.51.35-1.06,0,0ZM846.59,439l44,28.33,6.78-4L893.87,451l-41.54-25.89Zm84.76,30.07,18.77,5.31,32.44-10.13L982,445.74Zm-9.28.57v1.1l.67-.68Zm0-1.16,3.52,2.21,1.58-.73.5-.91L922,467.5Zm-1-.65.21.14L921,451.25l-4.47,3-1.9,6,.07.71Zm7.93.56,1,.29,52.23-24.09-3.38-14.31-45.54,30.18Zm-5.37-1.51,4.55,1.29,3.65-6.72Zm-16.87-5.33.65,3.59,6.91,0-.15-1.48-.54-.33-.47,1.48Zm15-10.86.28,16.12,10.69-7.08,13.9-25.62Zm-26.81,1,3.22,11.22,6.17-3.65.33.18.46-1.4Zm12,8.89,5.74,2.91.2-.61-4.84-3Zm7.94,2.4,1,.65-1.09-1.19Zm-6-3.71,4.27,2.66.3-.95-2.7-2.95Zm-2.7-.55.2,1.11.77-.5Zm5.35-1.22,2.17,2.39-.37-3.59Zm-5.42,0,1.92,1.19,2.1-1.39-2.91-3.18Zm8-1.75.26,2.39,1-3.24Zm-19.58-5.48,10.5,6.55-1.14-6.35-13.58-14.84Zm13,2.85,3.35,3.67,2.32-1.56-1.54-14.76Zm-2.64-1.52.8,4.49.88-2.66Zm7.4-13L914,454.77l1.84-1.22,4.88-15.3-.41-24.06ZM904.63,450l2.3,2.52,4.57-13.93-6.39-61.16.8-.18,6.21,59.43,8.16-24.94-.66-39.5-26.43,6.5-27.35,28.87,22.63,24.73-10.53-36.54L893,385Zm16.14-9.17-3.84,12,4-2.66Zm-31-7.1,13.85,15.13-11.17-62.34-13.49,9.68Zm31.35-21.85.41,24,19.21-60.23-7-2.24Zm46.56-14.7L949,431.42l29.56-19.71Z"/><path d="M950,370c-40-16.88-91.6,15.17-115.14,71.37S824.44,557.4,864.78,573.47c43.21,17.2,91.59-15.18,115.14-71.38S987.15,385.61,950,370Zm18.4,125.68c-18.65,47.76-60.92,75.87-94.41,62.79S828.51,496,847.16,448.28s60.92-75.87,94.41-62.79S987.09,447.88,968.44,495.64Z"/><path d="M711.44,371.81c-50-24.35-113.94,3.85-142.73,63S557.14,561.63,607.17,586s113.94-3.85,142.73-63S761.47,396.17,711.44,371.81Zm26.72,138.41c-20.24,51.82-71.51,80.22-114.51,63.43S562.2,501.23,582.44,449.4,654,369.18,697,386,758.4,458.39,738.16,510.22Z"/><path d="M717.76,372.42a99.34,99.34,0,0,1-4.89,13.87c-3,7.18-3.39,8.43-3.39,8.43l6.17,5.36.75-.48a138.49,138.49,0,0,0,6.81-12.94c1.87-4.58,2.34-5.7,2.71-6.93.29-1-1.32-2.85-1.32-2.85Z"/><path d="M678.37,485.81c-1.8,6.77-7.53,11.12-12.78,9.71s-8.08-8-6.28-14.78,7.53-11.11,12.79-9.71S680.17,479,678.37,485.81Z"/><path d="M665.1,478.79c-1.79,6.76-7.52,11.12-12.78,9.71s-8.07-8-6.27-14.78,7.53-11.11,12.79-9.72S666.91,472,665.1,478.79Z"/><path d="M722.23,273.89s14.42,8.28,16.09,11.05-2.35,12-2.35,12-2.87.64-3.42,2.85a4.29,4.29,0,0,0,.88,3.76L718,347.23s-4.07.71-4.17,2.95,3.46,2.85,3.46,2.85l-.59,3.11,8.8,3.55L726,357s5.76,1.61,5.86-.63-2-4.57-2-4.57l15.85-42.33s3.17-.75,3.29-3.43a6.78,6.78,0,0,0-1.58-4.55l2-4.4L750,294l1.44-2.18s3.73-3-1.42-8.14a61.5,61.5,0,0,0-12.15-9Z"/><path class="cls-5" d="M764.59,110.68l-1.46-2.93s-6.23,3.63-9,9.65-4.81,13.88-6.29,18.08-3.53,13.88-3.53,13.88l.17,3.29s4.82-15.53,7.77-21.91a66.86,66.86,0,0,1,10.12-15.68C765.13,112.15,764.59,110.68,764.59,110.68Z"/><path class="cls-5" d="M845.08,140.26s0-10.78.25-13.71-6-10.08-6.72-12.64-4.54-6.6-8.73-11.19-9.1-9.54-18.24-9-17.4,7.42-20.17,12.9-8.67,17.51-9.42,24.09.65,18.1,2.46,24.51,9.83,8.63,9.65,9.18-1-10.79-.85-14.08.42-15,1.17-19,.62-17,6.66-20.27,10.27-8,18.31-6.32S832,112.6,834,117.18s6.7,16.3,7.59,21.24-.22,8,0,12.62,4.35,9.52,4.35,9.52l2.8-13.7Z"/><path class="cls-5" d="M824,210.57l7.62,13.75s4.24-8.21,6.44-10.77-.46,23.4-.46,23.4-3.45-5.13-5.27-8.43-10-10.28-10-10.28Z"/><path d="M2052.82,92.09s-8.09,4.42-11.25,5.43-9.48,5.56-12.13,7-8.71,5.56-11.62,11-4.3,17.06-6.44,26.28-4.05,24.26-4.43,26-1.64,3.79-4.54,8.59-3.67,8.84-4.93,15.29a110,110,0,0,0-1.77,14.4,72.8,72.8,0,0,1-3.54,17.18c-1.89,5.31-1.73,6.15-2.82,7.84a42.15,42.15,0,0,1-4.34,5.09c-1,1.1-2.61,2.57-3.16,3.08a4.82,4.82,0,0,0-1.51,2.73,24.69,24.69,0,0,1-1.52,4.76,12.83,12.83,0,0,0-1.3,3.71,26.41,26.41,0,0,0,.08,5.47c.26,1.52.93,2.15,1.81,2.07s1-1.9,1.14-2.62a16.13,16.13,0,0,0,.13-3.41c-.13-.46.75-1.55,1.13-2s1.39-2.57,1.73-2.86,2.65-1.9,3.37-2.44,3.45-1.27,4.63-.42,2,1.22,2.28,2.57-2,5.64-2.61,7.07-1.69,3.41-1.94,4.25a1.88,1.88,0,0,0,1.09,2.15c1.18.25,2.66-1.11,3.33-2,1-1.39,1.56-3,2.82-4.47s2.87-4,3.71-4.46a5.25,5.25,0,0,0,2.52-3.79c.42-2.19,1.27-5.72,1-8.67s1.09-6.07,1.09-8.26,2.36-8.25,3.87-11,8.76-16.59,10.28-20.38,4.13-8.85,4.46-12.13a34.4,34.4,0,0,1,1.69-8.59c.92-2.45,4.8-13,6.15-17.36s3.45-10.52,3.45-10.52a7.3,7.3,0,0,1,1.18,3c.25,1.68,1.85,6.39,2.36,12.46s2,27.54,1.77,33.35-.76,7.84-.76,10.11,1,4.55.5,6.82-1.77,2.78-1.26,4.55,1.52,4.55,1,6.07-2.24,5.92-2.78,8.08c-.21.84-2.28.25-4.21.17s-6,1.43-6.4,4.72,3.45,8.76,4.29,11,2.28,5.72,1.77,7.49-4,4.38-4.8,6.15-.08,11.46.51,16.68,1,12.8,1.6,17.35,1.35,7.41,1.09,11.54-1,12.72-1,18.7,7.25,25.94,8.84,28.89,5.65,10.52,6.07,14.48,1.43,4.13.84,6.41-.59,2.94-.33,3.95l.5,2s-2.19,4.55-3.71,8.93-2.94,8.51-6.23,13.06-4.38,7.24-4.88,12.46,3.2,9.94,9.68,10.36,17.44,2.78,19-5.47-.5-11.29,1.18-15.84,6.24-8.59,6.32-14.15-2.44-10.1-4.13-14-3.7-8.76-4-14.32a87.52,87.52,0,0,1,1.18-18c.84-4.55,1-6.4.17-10.61s-2.87-11.79-2.87-11.79a30.86,30.86,0,0,0,7.67-.51c2.44-.67,3.54-3.87,3.37-5.47-.39-3.7-.76-19.88-.59-21.9a14.34,14.34,0,0,1,2-6.24c1.18-1.85,6.23-12.13,6.23-12.13s1.52,10.37.51,14.58-5.48,16.25-5.9,25.26-.67,13.73-1,14.74.17,3.29,1.85,3.37,6.66-.33,10.79.09a84.91,84.91,0,0,1,10.94,2.35s1.52,10.28,3.21,14.91,3.53,9.94,3.62,12.89-1.18,7.92-1.18,16.51.5,19.71,2.52,28.3,4.81,20.21,4.81,20.21l13.13-4s5.56-24.76,6.83-42.2-3-25.77-4.3-32.6-2.27-14.65-2.27-14.65,2.9-.76,3.53-5.05,2.53-22.11,3.54-28.43,3.16-17.94,3.54-22.11,3-16.55,3.41-22.74-2.4-13.14-2.78-15.54a5.8,5.8,0,0,0-2.27-3.66s1.89-4.05,1.64-6.32-1.64-4.3-1.77-7.58.51-8.21-.88-11.63a112.22,112.22,0,0,1-5.18-19.07c-1.14-6.83-1.77-14.66-1.77-14.66s1.64-5.81,3.41-11.37,3.54-13.26,3.54-13.26,4-.26,3.91-1.9-.38-16.43-.12-23.12-3.29-12.51-5.31-15.54-11.12-9.73-14.91-13.39-9.73-3.79-13.89-6.57a32.67,32.67,0,0,1-5.44-4.17,18.23,18.23,0,0,0,3.16-7.08c.63-3.79,2.28-8.21,1.77-10.23a4.71,4.71,0,0,0-1.39-2.65,8.12,8.12,0,0,0,2.78-5.69c0-3.41,1.26-9.6-.63-13.39s-6.82-7.33-13.4-9.35-16.42-4.55-25,.51-12.38,11.87-12.76,14-.88,7.33.13,8.59a3.81,3.81,0,0,0,2.4,1.39s.25,5.69,1,8,.38,9.1,1.51,11.75A28.6,28.6,0,0,1,2052.82,92.09Z"/><path d="M2078.34,291.08s-7-2-11.75-1.39-34-.64-35.88-.76-5.94-1.9-12.64,0-16.3,2.91-25.9,2.91-14.53-1.4-16,.12-4,6.19-3.41,7.46a30.85,30.85,0,0,0,3.28,5.93c2.53,3.79,5.43,7.84,5.43,7.84a23,23,0,0,0-3.28.63,1.36,1.36,0,0,0-.51,1.89c.51.76,1.27.26.63,2.66s-2.52,12.63-2.52,12.63a2.59,2.59,0,0,0-1.26,1.77c-.13,1.14-.26,3.41.75,3.92s3.16,1.51,4.8,2.14,5.56,2.53,5.56,2.53-.63,8.85,2,12.26,4.05,6.94,6.07,10.48a8.71,8.71,0,0,0,7,4.8c2.27.26,6.31.51,6.31.51a1.57,1.57,0,0,0,1.39,2c1.9.38,4.68.38,5.31-.51a6.63,6.63,0,0,0,.88-2.27l5.44.38s1.89,3.41,4.55,3.41h9c.37,0,1.26,5.05.5,7.2a11.49,11.49,0,0,0,.63,7.08c.64,1,2.78,2.65,4.68,2.4s3.54-1.64,3.41-2.78-1-3.16-.25-3.54,1.51-.38,4.67-1.26,9.1-4.93,10.23-7.46,3.41-4,3.54-5.68.13-2.28.13-2.28,11.37-.5,14.4-6.82,4.8-13.64,4.17-16.68-1-4.16-.13-11.49S2078.34,291.08,2078.34,291.08Z"/><path d="M2006.83,247.87s.5,3.41-1,5.3-6.7,3.16-11.63,5.44-7.58,4.67-7.45,6.06.88,1.64,1.77.89.38-2.91,6.32-4.3a39.53,39.53,0,0,0,10.61-4.3,12.31,12.31,0,0,0,3.79,2.15c1.64.38,2.15,2.4,4.42,2.66s3-.89,2.27-2.15-2.52-2.28-1.76-4.55,2.4-3.16,2.4-5v-2.78Z"/><path d="M2001.65,242.18s6.82.51,9.85.51,10.24.25,11.75.38,1.64,4.8.13,4.93-23.16,1.3-23.16,1.3Z"/><path d="M2005.57,243.7s-.39-3.41.25-3.92,5-.75,5-.75a1.67,1.67,0,0,1,.76-2.28l1.51-.88s2.15-4.93,5.82-3.92,4.54,4.8,3.91,6.06l-.63,1.27s2.4,1.26,2.15,3a4.15,4.15,0,0,1-2.78,2.9C2021.23,245.21,2005.57,243.7,2005.57,243.7Z"/><path d="M2032.11,262.15c0-.09-1.41-8.14-4.58-13.38s-9.83-8.27-9.9-8.3l.63-1.38c.29.14,7.2,3.32,10.57,8.89s4.71,13.57,4.77,13.91Z"/><path d="M2028.16,278.58c-.05-.09-5.32-8.86-7.8-12.33s-6.93-6.08-7-6.11l.77-1.3a28.05,28.05,0,0,1,7.43,6.53c2.52,3.52,7.65,12.07,7.87,12.43Z"/><path d="M1990.09,292.36c-7.74,0-8.82-6.3-9.87-12.41-.13-.7-.25-1.44-.39-2.19-1.42-7.79-.09-31.79,0-32.81l5,.28c0,.24-1.36,24.42,0,31.62.14.77.27,1.52.4,2.24,1.21,7,1.74,8.41,5.44,8.2,5.75-.31,8.77-3.59,11.69-6.76l.24-.26c3.83-4.16,10.3-7.07,15.24-4.59,3.11,1.56,10.53,6.1,13.5,7.94l-.2,5.83-1.23-.78c-.11-.06-10.69-6.65-14.33-8.47-2.47-1.24-6.79.81-9.27,3.49l-.24.27c-3.09,3.35-7.33,8-15.12,8.38Z"/><polygon points="2079.47 332.64 2077.2 394.68 2085.16 398.21 2086.68 333.91 2079.47 332.64"/><path d="M2057.49,414.39s3.92,0,4.93-.13,2,1.39,2.52,3.66a27.69,27.69,0,0,0,.89,3.29s2.4.12,2.78,1,.88,3.66-.13,5-3.41,4.3-3.91,7.71l-.51,3.41s1.14.38,2.65,1,6.45-.38,6.45-.38,9.22-1.39,9.85-.88,2.27,6.44,2.27,9.73-3,9.34-3.53,9.47-8.59.63-10.24-.13-1.89-7.2-1.89-7.2-4.93-.25-7.58-.5-5.31-2.4-5.18-4.93.38-4,1-4.55,1.26-3.79,1.26-4.55a24.35,24.35,0,0,0-.76-3.41h-15.91c-2.53,0-2.66-1.13-3.16-2.52s-.38-5.31.12-5.82S2057.49,414.39,2057.49,414.39Z"/><path d="M2124.7,444.71c-1-8.21-5.81-20.22-5.81-20.22s-11.24-24.38-12.76-25.27-4.29-2.14-6.32-2.14-7.32,1-9.85.75a22.89,22.89,0,0,1-4.93-1.13L2077.7,392l-21.85-22.61,6.69,28.93,7.46,17.44s2,21.85,2,22.48.88,4.93.88,4.93,6.83,12.51,6.95,12.89,2,5.93,3.67,8.34,4.92,2.27,4.92,2.27l9.48-38.79s6.19-7.07,7.83-3,1.52,6.82,3.92,12.51,4.17,18.19,5.18,19.58,10.11,1,10.61.38S2125.71,452.92,2124.7,444.71Zm-45-27.92c-.26,2.27-2.41,10.23-2.41,10.23s.13-7.46,0-9.6-1.13-9.86-1.13-9.86l1.26.51S2080,414.51,2079.73,416.79Z"/><path d="M2120.91,408.32s17.56,10.74,19.84,13.9,2.52,4.8,2.15,5.43-1.39,3-3,1.52-3.15-5.44-8-8.47-10.49-6.95-10.49-6.95Z"/><path d="M2147.57,426.26c0,4.26-1.55,7.71-3.47,7.71s-3.48-3.45-3.48-7.71,1.56-7.71,3.48-7.71S2147.57,422,2147.57,426.26Z"/><path d="M2136.83,430.11c0,3.74-2.66,6.76-5.94,6.76s-5.93-3-5.93-6.76,2.65-6.75,5.93-6.75S2136.83,426.38,2136.83,430.11Z"/><path d="M2118.64,415.78l5.05,3.28s5.06-.76,6.7,0,5.56,4.42,5.56,4.42l-9.73,1.64,7.83,8.22s-.88,3.66-1.39,6.57-5.3,14-4.92,14,5.18,1.77,5.05,2.53-8.72,1.89-8.72,1.89l1.27-4.29s5.43-13,5.43-14.79v-3.41l-8.21.26-5.31-8.85Z"/><path d="M2125.21,459s5.31,7.33,5.56,9.1a15.21,15.21,0,0,1-.25,3.79c0,.88-1.39.88-2.91,1.14a19.12,19.12,0,0,1-2.78.25s-.13-4.3.25-4.55,4.43.25,4.17-.63-4.8-8.21-4.8-8.21Z"/><path d="M2124.45,474.52s3.92-.38,4.93.13,1.89,2,1.89,5.56-2,3.16-3.66,3.28-2.4.13-2.4.13Z"/><path d="M2112.46,463.66s.92-1.77,1.7-1.65,3.14,5.06,2.88,13.52-1.18,8.09-2.23,7.46-.78-3.67-.78-3.67l-10.47.76a3.5,3.5,0,0,1-2.88,1.27c-1.83-.13-2.22-.38-2.61-1.65s-.66-2-.66-2-1.83.25-2.48-.5-1.18-3.67-1.18-4.68.13-3.28.78-3.54,1.44-.63,1.44-.63.13-3.41,1.7-3.91a4.12,4.12,0,0,1,3-.13,2.61,2.61,0,0,1,1.05.76Z"/><path d="M2127.45,476.5c-1.53-29.2-11.75-52.39-22.83-51.81s-18.82,24.72-17.28,53.92,11.75,52.39,22.83,51.81S2129,505.7,2127.45,476.5ZM2110.68,516s-10.61-7.33-13.39-39.29c-2.28-26.2,3.28-42.07,7.32-41.31s10.87,17.94,12.39,45.23S2110.68,516,2110.68,516Z"/><path d="M2112.9,518.3l-1.17-3.2c-.18,1.51-.29,2.42-.31,2.5l-.06.24-.26.14c-.25.11-.76.33-7.49-3.34l-.32-.18.75-4.05-5.32-10.15,4.26-6.33-.63-4.46-2.69-7.35L2096,488.3l-.86-.52,4.12-6.88-.95-2.61,2.7-5.94.64,4.57.84-1.4,1.67.07c-.26-.74-.51-1.42-.73-2l-.25-.69,6.57.11-1.15-4,7.59,7.11,0,.25c-.22,1.93-.68,6.07-1.24,11L2119,501.8l-1.23-37.7-6.47,2.22,1,1.91.4.8-9.5-.7.4,1.09-.94.35-.54-1.44h-5.65l-1.84-23,8.19,22h1.07l7.1.56-.62-1.23-2.14.74,1.06-2.91c-.81-1.6-1.8-3.57-2.86-5.69l-1.93,7.89-1-.13L2104,454l-8-16c-.24-.48-.47-.94,9.19-6.1l.77-.42-.9,22.31c.35.71.71,1.41,1.06,2.11l4.79-19.71,4.65,14.1-5.16,14.15.5,1,7.89-2.7,1.55,47.21L2114.58,490c-.33,2.9-.67,6-1,9,3.43,9.65,3.43,9.82,3.43,9.9s0,.49-3.59,8.29Zm-5.89-3c1.52.77,2.84,1.41,3.49,1.64.08-.67.24-2,.46-3.93l-4.24-11.6-.94,5.13Zm5-2.42,1,2.77c1.21-2.65,2.74-6.07,3-6.75-.19-.6-1.23-3.56-2.66-7.6C2112.81,505.73,2112.34,509.87,2112,512.87Zm-7.57,1.06c.67.36,1.35.72,2,1.06l-1.64-3.12Zm2.65-14.49,4.15,11.32c.36-3.19.82-7.27,1.32-11.65-1.09-3.05-2.34-6.53-3.57-10Zm-7.17.89,4.43,8.47.42-2.3-1.56-11.07Zm4.13-6.16,1.3,9.19.7-3.83-2-5.39Zm.73-1.07,1.63,4.47,1.74-9.48Zm4.57-6c1.39,3.88,2.53,7.08,3.47,9.69.34-3.1.7-6.29,1-9.36l-1.58-5.53-2.73,4.06Zm-6,2.1,1,2.7,3.68-5.48c-1.28-3.58-2.52-7-3.53-9.84l-1.48-.06-1.18,2Zm2.23-12.58c1.14,3.16,2.16,6,3.08,8.58l1.54-8.41Zm7.43,4.19,1.14,4c.34-3,.66-5.87.94-8.33l-3.24-3-.37,2,.1.39,1.53.05,1.6,2.39Zm-12.67.17,1.35,3.68-.68-4.8Zm10.73-3.3L2110,483.5l1.91-2.84Zm-11.71.62.53,1.46.89-1.49-.33-2.37Zm12.52-1.44.77,2.68.84-1.26-.93-1.4Zm-6.67-1.26,5.17.19.06-.29L2110,474l-5.41-.1C2104.79,474.49,2105,475.06,2105.2,475.63Zm-7.82-8.31h4.33l-5.53-14.86Zm9.39-10.05,3,5.91,4.71-12.92L2111,439.85Zm-1.85-1.41-.23,5.64,1-4.11ZM2097,437.8c.69,1.37,3.83,7.62,7.08,14.11l.76-18.72A81.54,81.54,0,0,0,2097,437.8Z"/><path d="M2099.43,435s6.45,9,9,12.76,5.93,9.47,6.94,11.5a6.6,6.6,0,0,1,.38,4.29s-6.44-12.63-9.85-17l-7.2-9.35Z"/><path d="M2033.31,480.73c-.39,0-.75,0-4.21-8.93l-.07-.17,3.79-12.13c-.06-.35-.12-.7-.19-1.06l-4.36,6.17-1.55-23.76.43,1,2.92-12.09-2.65-4.12-.7-8.06,12.3,5.65-5.83,9.41,6.15,9.3-.15.49,3.66,1.52-5.94,8.4,4.11,9.56-.92.4-3.87-9-.78,1.1-.91,2.92c0,.69,0,1.36,0,2l5.34,12.73-.07.18c0,.07-2.27,6.32-2.39,6.69l-.13.37-.39,0c-.37,0-.51,0-2.56-11.51-.21,8.16-.38,12.39-.49,12.61l-.15.3Zm-3.21-9.13c1,2.62,2.17,5.4,2.88,7,.11-2.66.26-8.73.43-15.76-.07-.37-.14-.76-.21-1.15Zm4.32-8.94c1.09,6.11,2.09,11.64,2.6,14.31.6-1.69,1.48-4.13,1.74-4.83l-4.32-10.28C2034.43,462.13,2034.43,462.39,2034.42,462.66Zm-6.3-15.86,1,14.9,3.3-4.66,0-.14Zm2.57-5.3c.63,3.59,1.56,8.89,2.53,14.36l.35-.5c.06-2.62.12-5.25.17-7.8l-2.59-6Zm4,8.31c0,1.35,0,2.65-.08,3.91l.74-2.38Zm-7.42-7.62,4.29,10.22c-.58-3.36-1.25-7.15-2-11.41l-.12-.66,1.23.14-.81-1.9,8.29,3.45-5.57-8.42Zm9.16,9.1h0l4.85-6.86-2.41-1Zm-1.68-3.92,1.07,2.49L2038,443l-3.09-1.29C2034.83,443.7,2034.79,445.57,2034.76,447.37Zm-2.45-5.68,1.48,3.43c0-1.11,0-2.2.07-3.25Zm-1.47-10.75-1.43,5.9,2.58-4.16Zm.32-1.34,1.41,2.14,5-8-4.47-2.06Zm-2.74-4.14,2,3,1.74-7.24-4.27-2Z"/><path d="M2028.3,436c-.88-.13-2.9-.25-2.77,3.16s-.76,8.34,1.26,8.34,2.65-5.06,2.65-5.06,5.94.51,6.32.51.25,2,1.64,3.66,2.28.38,2.78-2,1-9.35-.12-10-3.92,3.92-3.92,3.92l-6.44-.76Z"/><path d="M2046.6,444.67c-1.26-27.18-8.16-48.95-15.42-48.61s-12.11,22.65-10.84,49.83,6.32,48.72,15.41,48.61C2043,494.41,2047.86,471.85,2046.6,444.67Zm-7,7.74c-.63,14.41-3.35,26.77-4.32,28s-4.9-11.74-6-27.78.27-37.58,2-38.84S2035,417,2035,417,2040.18,438,2039.55,452.41Z"/><path d="M2022.62,433.08c-.38,0-2,1.77-4.55,2.4s-3.28.26-4.29,3-1.39,5.43-.51,5.55.76-2,1.52-3.15,4-1,5.18-1a11.73,11.73,0,0,0,2.27-.26Z"/><path d="M2035.63,383.81a18.38,18.38,0,0,0-2,9c.25,4.93.51,7.83.76,8.34s4.93,4.3,5.31,4a123,123,0,0,0,5.18-12.5V386Z"/><path class="cls-6" d="M1523,116.44s-15.35,10.69-19.46,21.65-5.21,26.31-5.21,26.31-12.33,17.81-15.89,28.23-11.79,23.29-18.09,30.42-19.84,29.11-24.39,37.54a164.47,164.47,0,0,1-10.14,16.72l15.89,9.87s26.86-17.82,37-29.6,12.88-23.29,19.73-33.71,11.78-20.82,14.8-25.21,6.85-13.43,12.34-19.19,11.23-9.31,14.25-1.92a117,117,0,0,0,15.34,25.22c4.94,5.75,16.72,15.62,19.46,18.63s3,11.52,3.84,15.9-.54,5.75.82,9.59,5.48,8.5,5.48,8.5-3.28,8.49-10.41,24.12-10.14,20.55-10.14,20.55L1555.87,333s-5.75,10.14-2.19,18.09,17,22.19,17,26.85.28,21.65-.82,27.68-1.92,12.61-2.74,20.56-3.56,31-4.66,37.54.37,58.91,0,70.71c-.55,17.82-3.29,25.76-4.11,31.25a9.88,9.88,0,0,1-4.66,7.4s-1.91.54-5.48,4.11S1537,590,1531.21,595s-11.79,4.39-17.27,4.93-9.35,4-9.59,7.41c-.12,1.75.28,7.39,6,9s24.66,4.11,30.7,4.11,13.7-4.93,26.31-2.47,13.7,1.37,16.17,1.92,3.83-6.85,3.28-7.4-.55-4.38-.55-4.38-1.91-17.27,0-33.71,6.58-35.63,9-49.88,2.74-11.79,7.12-24.39,4.12-20.56,2.74-32.89,4.39-40.29,6.86-45.77a70.76,70.76,0,0,0,3.83-11.24s11.51,6.86,18.09,12.06,12.06,14.25,14.8,20.28,3.88,10.52,3,20c-1.1,12.06-5.9,21-11,27.95-4.39,6-8,10.14-6.86,14.25s10.69,6,17.27,5.21,19.73-7.67,23.29-10.41,11.52-13.43,15.08-20.28,7.12-14,10.14-17.82.27-11.23-2.47-15.89-7.67-11.52-11.51-12.61-5.21-.27-5.21-.27a58.85,58.85,0,0,1-11-10.14c-4.94-6-20-29.88-27.41-41.39s-5.48-10.69-11.23-16.44-9.6-7.68-9.6-7.68,25-12.88,33.72-17.26,12.05-5.76,20-12.33,20.55-21.11,25.76-30.15,8.77-31.52,6.58-45.22-13.43-40.29-21.65-54.26-16.72-32.07-21.93-42.21-13.7-25.76-19.73-34.8-14-12.07-22.2-13.71-15.62-2.19-24.11-5.21a149.87,149.87,0,0,1-16.45-7.12s3.56-1.64,3.84-4.66.27-4.11-1.37-6.85-3-5.21-3-5.21a115.41,115.41,0,0,0,2.74-16.72c1.1-10.68-3-15.62-8.49-20s-20.28-11.24-37-8.23-20.28,9.6-21.93,13.44-.54,12.87-8.49,16.16-9.87,4.66-11,8,3.57,7.67,7.41,7.4a38.75,38.75,0,0,0,8.49-1.92,18.13,18.13,0,0,0,3.29,4.66c1.64,1.37,1.65,3.56,1.65,5.62s1.5,5.35,1.64,8.5,1.1,5.48,1.1,8.49.55,6.44,1,7a2.13,2.13,0,0,0,1.23.68,4,4,0,0,0,0,2.33C1522.85,114.52,1523.81,114.39,1523,116.44Z"/><path class="cls-6" d="M1708.53,258.68s20.28,3,28.77,0,19.73-12.88,20-16.17,0-16.72-1.1-28.78-8.77-36.17-10.41-49.6-3.29-18.64-8-29.06-29-20.55-33.16-21.1-13.7-2.46-18.91.28-10.69,7.67-16.72,5.75a53,53,0,0,0-8.49-2.19s.82-6-3.57-9a37.32,37.32,0,0,0-21.37-5.75c-8.23.55-13.44,3.29-13.71,4.11s33.17,39.74,33.71,40.56,22.75,42.48,31.52,60S1708.53,258.68,1708.53,258.68Z"/><path class="cls-6" d="M1431.61,275.75s-5.55,4.42-8.93,7.87-4.11,7.09-8.84,10.17-8.73,5.65-8.73,5.65a4.67,4.67,0,0,0-2.16,3.81,27.42,27.42,0,0,0,1.23,8.53c.49,1.45,2.64,4.85,4,4.11.77-.42.51-3,.51-3s1.85,3.08,3,2.77,1.55-2.88,1.55-2.88,1.64,1.65,2.77,1.44a3.16,3.16,0,0,0,2.26-1.95,14.13,14.13,0,0,1,.93-2.57l6.78-1.13c2.47-.41,2.36-1.44,2.77-2.57s1-1.13,2-1.13,1.54-3.08,3-6.06,5.44-4.63,8.22-7a28.64,28.64,0,0,0,4.77-5.44Z"/><path class="cls-6" d="M1568.15,300.21s-4.6,4.51-9.54,5.33-12.6,3.7-15.07,4.25-4,1.78-4.11,3.7.14,5.34-.41,8.49a25.64,25.64,0,0,0-.41,7.13c.14,2.74,3,3.43,4.66,3.84a16.19,16.19,0,0,1,4.25,1.64c1.5.83,3.28,1,4.11.28s2.33.55,4,.13a18.33,18.33,0,0,1,6.17-.69c1.91.28,2.19-4.93,2.74-6.43s4-5.21,7.12-6.44,9.32-2.75,10-4.66a25.84,25.84,0,0,0,.95-5.07Z"/><path class="cls-6" d="M1694,294.86s7.13,1.09,7.13,7.67-.55,15.34-8.77,17.54a146,146,0,0,1-17.54,3.29l-21.93,14.25s1.1,4.39,2.74,4.93,21.93,1.64,26.86,3.83a10.78,10.78,0,0,1,6,6.58s-2.19.56-5.48-2.19-19.19-3.29-19.19-3.29,7.68,8.23,10.42,11l2.74,2.74a3.79,3.79,0,0,1-2.74,1.64c-1.65,0-6-3.29-11-7.12a17.09,17.09,0,0,0-11-3.29L1648,370s5.48,1.64,4.38,4.93-5.48,23.57-5.48,23.57-12.06-11.51-12.06-14.25,0-11,1.65-13.7,3.84-1.1,3.84-2.75,2.74-15.34,2.74-15.34l-4.39-4.94s-3.83,20.83-6.58,25.76-14.8-1.09-17.54-3.83-1.09-24.67-1.09-24.67Z"/><path class="cls-6" d="M1646.86,374.88s30.15-27.41,49.88-25.22,46,3.29,59.75,8.78,41.1,23.57,42.2,26.3-15.34,4.39-23.57.56-30.69-17.55-43.3-20.84-45,5.49-53.17,8.77-15.89,1.65-18.09,1.65Z"/><path class="cls-6" d="M1729.51,545.68l-4.53-78c-16.12,29.07-35.24,63.67-35.57,64.26l-3.41,6.18.33-7.05c0-.93,4.38-92.79,4.38-109,0-20.29-5.26-23-10.41-23-6,0-17.77-1.72-25.57-2.85-3.45-.51-6.71-1-7.32-1v-3.29c.82,0,3.1.33,7.79,1,7.71,1.13,19.37,2.83,25.1,2.83,12.14,0,13.7,14.06,13.7,26.31,0,13.62-3,80.14-4.06,102.11,6.75-12.21,22-39.86,34.68-62.64l-2.79-48.08,28.08,5.61v1.35c0,.33-.08,3.35-3,8-1,1.6-9.12,16.16-19,33.89l4,68.64c2.49-6,6.31-14.93,9.9-22.44,6.16-12.88,21.12-80.32,21.22-83.16a22.86,22.86,0,0,0-.51-5.08l3.2-.8a27.12,27.12,0,0,1,.59,5.89c0,4.14-15.7,72.37-21.53,84.57-5.94,12.41-12.5,28.78-12.57,29Zm-4.14-128.21,2.24,38.65c8.7-15.66,15.58-28,16.52-29.49a18,18,0,0,0,2.25-5Z"/><path class="cls-6" d="M1645.77,406.67S1686.33,410,1700,410s36.18,2.74,43.85,3.29,9.87,3.84,9.87,3.84,14.24,1.09,17,1.64,2.74,3.83,0,4.38-18.64,0-24.12,0-13.7-2.19-15.9-2.74l-2.19-.55s-5.48,3.29-9.32,2.2a9.44,9.44,0,0,1-5.48-4.39l-26.86-2.19s-4.38,1.1-6,2.19-8.23,0-10.42,0-4.93-2.19-4.93-2.19Z"/><path class="cls-6" d="M1576.7,379.26,1504.9,371l1.64-14.25a6.45,6.45,0,0,0,2.74-5.48c0-3.84,2.74-7.68,0-10.42s-6-4.93-7.67-4.93H1500l-6.58-4.93a7.6,7.6,0,0,0,5.48-2.74c2.19-2.74,9.32-2.74,9.32-2.74v-7.68l-9.87-.54s0-3.29-5.48-3.29-8.22-1.1-9.87.54l-4.93,4.94s-9.32-.55-13.7-2.74l-4.39-2.2h-11s5.48,9.32,13.15,11.51,13.16,3.29,13.16,3.29L1494.49,353,1492.84,365s-4.39-.55-4.39,3.84v4.38l-8.22,41.11-2.74,3.84s-2.74,8.77-6,8.77-8.77-2.19-11,.55-4.93,6.58-1.64,8.22a8.33,8.33,0,0,0,9.86-1.1c3.29-2.74,9.87-6,13.7-3.29s6.59,6.58,8.78,7.13,5.48,3.84,8.22,1.1,2.19-8.77,2.19-10.42-2.74-8.77-2.74-8.77l81.67,120S1603,570,1606.85,571.1s3.29-19.73,3.29-19.73L1500,395.71l2.19-7.13,75.64,7.68Z"/><path class="cls-6" d="M1628.23,410.51l-25.77,140.32s.55,18.63,4.39,20.27,25.76-2.74,30.15-3.28,83.31-14.25,87.15-15.9l3.83-1.64s1.65-8.23,2.74-12.06-4.38-5.49-6-4.93-6.57,5.48-6.57,8.76-4.39,3.84-4.39,3.84-88.79,10.42-93.18,10.42-3.29,4.93-4.38,0,23.57-138.68,23.57-138.68Z"/><path class="cls-6" d="M1667.69,498.21s8.22,0,9.32,3.83,0,6.58-1.65,8.22-6,5.49-11,5.49-21.92,1.09-21.92,1.09-12.61,29.6-13.16,36.73-2.74,15.34,0,19.18-3.28,9.32,19.19,9.32,54.81-11.51,58.1-12.06,7.12,1.64,0,3.29-55.37,14.8-60.84,14.8-13.16-1.1-17.54-1.65-8.22-3.83-8.22-8.22-5.49-11.51-4.94-14.8,2.19-8.77,5.48-12.6,11-32.35,14.8-38.92,8.22-13.16,8.22-13.16Z"/><path class="cls-6" d="M1684.13,469.7s35.63,65.77,38.92,68.52,7.13,1.09,7.67,0-40.56-72.35-40.56-72.35Z"/><path class="cls-6" d="M1667.69,494.37s12.61,38.92,13.16,43.3-10.42,7.12-16.45,8.77-26.86,7.68-26.86,7.68,3.29,5.48,4.94,4.93,63.89-2.09,69.06-4.93c11-6,8.77-23.57-.55-29.6s-18.08,2.19-18.08,2.19h-7.13l-11.51-34.53Z"/><path class="cls-6" d="M1609,564.53c0,15.43-8.58,28-19.18,28s-19.19-12.52-19.19-28,8.59-28,19.19-28S1609,549.09,1609,564.53Z"/><path class="cls-6" d="M1694.6,606.5c-13.8,0-55.35-7.89-64.49-9.66-16.77-3.25-38.1-6.54-38.31-6.57l.5-3.25c.22,0,21.61,3.33,38.43,6.59,29.61,5.73,62.94,11,66.44,9.43l1.34,3A11,11,0,0,1,1694.6,606.5Z"/><path class="cls-6" d="M1679.2,557.4c-2.19.55-4.94,7.13-2.19,11s6,3.28,7.67,6.57,9.32,14.8,9.32,14.8-2.74,9.32-.55,12.61,4.94,6.58,8.77,2.74,4.94-6,1.65-11-5.48-8.22-7.68-13.71-4.38-9.86-4.38-9.86,4.38,2.19,6.58,2.19h2.19a39.2,39.2,0,0,0-4.94-7.12c-3.28-3.84-6-11.51-6-11.51s4.38,11.5,14.25,10.41,9.86-9.87,9.86-18.64S1679.2,557.4,1679.2,557.4Z"/><path class="cls-6" d="M1460,433s-4.93-.55-6.57,10.41-7.68,63-13.16,81.13-7.12,25.21-7.12,28.5v3.29s-4.94,2.73-3.29,7.12,5.48,6.58,7.12,6,2.19-2.74,2.19-2.74l18.09,1.65s0,6.57,4.93,4.93,5.49-3.84,5.49-3.84h8.77c2.74,0,6-1.64,2.19-3.29s-8.77-3.29-8.77-3.29,8.77-34,15.35-58.64,8.77-42.76,10.41-50.43a99.82,99.82,0,0,0,1.65-17.54l-12.06-5.48s-6.58,38.37-8.23,59.74-13.15,51.53-15.34,59.2-3.84,10.41-3.84,10.41l-15.35-2.74s1.65-2.19,1.65-8.22,14.8-64.67,15.89-76.73,7.13-25.22,7.68-32.89-1.1-9.87-1.1-9.87Z"/><path class="cls-6" d="M1715.13,427.93c-44.57-2.53-83.68,47.86-87.33,112.52s29.52,119.12,74.09,121.65,83.7-47.87,87.36-112.53S1759.72,430.45,1715.13,427.93Zm57.24,118.46c-1.27,54.41-30.64,97.87-65.6,97.05s-62.25-45.6-61-100,30.65-97.87,65.6-97S1773.65,492,1772.37,546.39Z"/><path class="cls-6" d="M1453.36,444.91c-46.63-3.32-88.28,47.73-93,114s29.28,122.72,75.91,126,88.29-47.74,93-114S1500,448.23,1453.36,444.91Zm58.42,126.45c-5.07,55.66-38.54,98.12-74.78,94.83s-61.5-51.09-56.44-106.76,38.54-98.12,74.77-94.83S1516.83,515.69,1511.78,571.36Z"/><path class="cls-6" d="M1406.33,312a75.43,75.43,0,0,0-9.21.94c-2.49.62-1.71,2.34-1.24,3.74s.62.63,4,.16l10.14-1.4s1.87,4.36,4.68,4.83,6.24-.94,9-.78,6.87.78,6.87.78-2.19,6.08-.78,7a3,3,0,0,0,4-1.41c.31-1.24.62-2.64.62-2.64s3.28,0,4.22.77,2.65,2.19,3.42.63-.93-5.15-.93-5.15,7-2.81,8.89-3.74,12.32-.16,13.26-.63a21.56,21.56,0,0,1,8.57-1.56c3.12.31,5.78,4.68,11.86,3.74s9.83-6.7,8.89-10.76-3.74-7.33-8.89-7.17-8,1.25-10.29,3.9-1.88,3.59-4.53,4.21-3.74,1.4-5.93,1.4-11.07-2-11.07-2-1.71-3.74-3.9-5.3-9.51-3-12.78-2-12,5.92-12,5.92l-14,2.34Z"/><path class="cls-6" d="M1504.27,318.21a40.88,40.88,0,0,1,7.64-2.34c4.52-.93,12.32-1.4,12.63-1.87s-1.71-5,.63-6.55,8.42-3.11,12.32-.15a7.62,7.62,0,0,1,3,7.33s12.79,1.71,17,2,13.42,1.72,16.69,1.87,10.29.94,11.54,3,.62,8.88-2.5,9-9.82-.78-12.62-1.09S1566,329,1566,329s4.21,2,3,4-5.61,1.25-8.26.78-17.31-2.66-17.31-2.66a19,19,0,0,1-7.33,1.41c-3.75-.15-8.43-.62-10.45-2.65a17.28,17.28,0,0,0-4.37-3.12s-.78,1.87-5.3.78-9.83-2.65-9.83-2.65Z"/><path class="cls-6" d="M1461.52,436.15c-.28-.06-7-1.5-11.61-5.65-2.91-2.62-6.05-11.26.36-55.95a56.41,56.41,0,0,1,15.79-32.23,301.37,301.37,0,0,0-27.41-19.66c-4-2.41-3.16-6.75-2.18-8.71l.21-.43,9.48-.55.31-.2.12.18,10-.58.25.48s2.69,4.89,12.6,7.85,11.63,4.28,11.93,4.62l1.15,1.31-1.75.05s-4.68.16-7.29,3.75a11,11,0,0,0-1.84,7,45,45,0,0,1,9-5.58l.25-.11,6,1.53.16.16,16.51,17-8.78,14.76c1.08.82,1.65,1.21,1.67,1.22l2,1.43-5.38.16-1.5,2.51-.68-.35c-.54-.27-12.42-6.43-18.37-22-.88-.87-1.77-1.77-2.65-2.7-.81-.71-1.62-1.41-2.44-2.09a54.83,54.83,0,0,0-15.44,31.44c-5.81,40.48-3.69,52-.89,54.48,4.31,3.86,10.78,5.25,10.85,5.27Zm14-85.15a42.43,42.43,0,0,0,14.36,16.6,164.34,164.34,0,0,0-13.06-15.42C1476.34,351.8,1475.91,351.4,1475.47,351Zm11,9.71c2.27,2.76,3.84,4.84,4.43,5.64l1.07,0,.47-.78C1491,364.41,1489,362.82,1486.52,360.71ZM1477.9,351c7.25,6.58,12.45,10.81,15.44,13.14l8-13.5-15.46-15.92-5-1.27a46.81,46.81,0,0,0-9.18,5.92,30.84,30.84,0,0,0,1,4.68c.28,1,.59,1.87.91,2.76C1475.14,348.18,1476.55,349.59,1477.9,351Zm-7-6.72.28.25v0a33.89,33.89,0,0,1-.91-3.9c-.5.44-1,.89-1.51,1.36C1469.49,342.73,1470.21,343.51,1470.92,344.26Zm-23.27-29.73a282.07,282.07,0,0,0,20,26.2c.8-.74,1.58-1.44,2.35-2.08-.32-3.77.37-6.86,2.09-9.2a11,11,0,0,1,6.06-4,93,93,0,0,0-9.25-3.17c-8.94-2.67-12.36-6.8-13.3-8.2Zm-9.89.57c-.43,1.15-1.27,4.32,1.74,6.15a286.58,286.58,0,0,1,23.62,16.67c-8.16-9.76-15.25-20.11-17.38-23.28Z"/><path class="cls-6" d="M1463.72,419.75c0,4.48-2.69,8.11-6,8.11s-6-3.63-6-8.11,2.69-8.11,6-8.11S1463.72,415.26,1463.72,419.75Z"/><path class="cls-6" d="M1455.61,425.21s0,4.36,1.56,6.23,3.74,1.72,3.59.78-2.5-8-2.5-8Z"/><path class="cls-6" d="M1467.08,462.85s.82,4.94-.41,7.81-1.65,5.76,2.88,7,9,2.88,11.09,4.52,7.81-5.75,5.76-8.22,3.7-28.36-.82-33.3-2.06-9.86-4.94-11.1-5.34-2.46-5.75,2.47,0,4.52,1.23,7,1.65,5.34-1.64,11.1S1467.08,462.85,1467.08,462.85Z"/><path class="cls-6" d="M1599.51,539.81c-5.48,0-9-.08-9.15-.09l.09-3.28c.32,0,33,.78,54-2.45a341.56,341.56,0,0,1,45.06-3.72v3.29a337.46,337.46,0,0,0-44.56,3.68C1630.56,539.45,1610.88,539.81,1599.51,539.81Z"/><path class="cls-6" d="M1529.57,615.78s-1.24,7,1.64,8.63,12.74-.41,17.68,0,17.26,2.47,17.26,2.47,4.94,2.88,6.58-4.11,3.7-14.8,3.7-14.8l-35.35,2Z"/><path class="cls-6" d="M1579.86,491.68c-.09-.13-9.08-13.19-15.15-20.06-3.67-4.17-4.56-4.12-6-4a9.09,9.09,0,0,1-4.35-.68c-1.36-.52-2.39-.58-2.9-.17s-.58,1.72-.51,2.15l-1.62.26c0-.25-.37-2.5,1.09-3.69,1-.83,2.53-.86,4.54-.09a7.64,7.64,0,0,0,3.66.58c2-.12,3.34,0,7.35,4.58,6.12,7,15.18,20.09,15.27,20.22Z"/><polygon class="cls-7" points="1499.7 641.73 1435.25 566.98 1434.89 567.24 1499.33 642 1499.7 641.73"/><polygon class="cls-7" points="1492.3 651.34 1460.77 561.59 1460.32 561.72 1491.85 651.46 1492.3 651.34"/><polygon class="cls-7" points="1478.36 660.02 1446.02 567.74 1445.58 567.88 1477.92 660.16 1478.36 660.02"/><polygon class="cls-7" points="1466.76 666.94 1454.21 567.6 1453.75 567.65 1466.3 667 1466.76 666.94"/><polygon class="cls-7" points="1507.82 621.53 1459.39 567.35 1459.03 567.63 1507.47 621.81 1507.82 621.53"/><polygon class="cls-7" points="1515.81 607.17 1456.42 563.56 1456.14 563.91 1515.51 607.51 1515.81 607.17"/><polygon class="cls-7" points="1525.19 586.5 1458.77 560.86 1458.59 561.26 1525.02 586.9 1525.19 586.5"/><polygon class="cls-7" points="1526.56 567.98 1458.15 568.15 1458.15 568.59 1526.56 568.41 1526.56 567.98"/><polygon class="cls-7" points="1526.29 550.19 1461.33 569.82 1461.47 570.22 1526.44 550.6 1526.29 550.19"/><polygon class="cls-7" points="1525.19 530.63 1440.51 556.19 1440.65 556.61 1525.33 531.04 1525.19 530.63"/><polygon class="cls-7" points="1511.4 488.16 1458.89 568.95 1459.27 569.18 1511.78 488.4 1511.4 488.16"/><polygon class="cls-7" points="1522.37 514.92 1458.22 562.19 1458.52 562.52 1522.66 515.27 1522.37 514.92"/><polygon class="cls-7" points="1516.19 497.7 1443.56 563.06 1443.88 563.37 1516.51 498.01 1516.19 497.7"/><polygon class="cls-7" points="1497.38 471.66 1434.25 560.48 1434.64 560.72 1497.77 471.91 1497.38 471.66"/><polygon class="cls-7" points="1487.97 464.3 1455.27 563.33 1455.7 563.47 1488.42 464.42 1487.97 464.3"/><polygon class="cls-7" points="1402.44 492.04 1433.74 561.36 1434.17 561.2 1402.88 491.88 1402.44 492.04"/><polygon class="cls-7" points="1393.8 505.59 1450.9 563.25 1451.25 562.94 1394.16 505.29 1393.8 505.59"/><polygon class="cls-7" points="1383.81 522.52 1449.38 562.63 1449.65 562.25 1384.07 522.14 1383.81 522.52"/><polygon class="cls-7" points="1376.79 537.7 1460.15 560.82 1460.27 560.39 1376.92 537.29 1376.79 537.7"/><polygon class="cls-7" points="1375.54 562.46 1433.78 567.07 1433.82 566.64 1375.59 562.02 1375.54 562.46"/><polygon class="cls-7" points="1376.86 580.2 1461.38 567.75 1461.31 567.32 1376.8 579.78 1376.86 580.2"/><polygon class="cls-7" points="1416.77 478.78 1461.13 562.04 1461.55 561.84 1417.19 478.6 1416.77 478.78"/><polygon class="cls-7" points="1422.53 468.57 1442.95 558.76 1443.4 558.67 1422.99 468.48 1422.53 468.57"/><polygon class="cls-7" points="1438.46 460.69 1456.42 560.97 1456.87 560.9 1438.91 460.62 1438.46 460.69"/><polygon class="cls-7" points="1449.29 457.95 1433.9 562.11 1434.37 562.16 1449.76 458.02 1449.29 457.95"/><polygon class="cls-7" points="1466.79 454.95 1461.43 565.02 1461.9 565.04 1467.25 454.99 1466.79 454.95"/><polygon class="cls-7" points="1475.49 456 1446.18 562.52 1446.64 562.63 1475.94 456.12 1475.49 456"/><polygon class="cls-7" points="1377.98 594.48 1431 564.7 1430.77 564.32 1377.74 594.08 1377.98 594.48"/><polygon class="cls-7" points="1377.11 613.2 1449.59 565.25 1449.32 564.89 1376.83 612.84 1377.11 613.2"/><polygon class="cls-7" points="1377.21 605.25 1459.21 571.87 1459.02 571.47 1377.02 604.86 1377.21 605.25"/><polygon class="cls-7" points="1381.68 631.25 1444.86 563.73 1444.51 563.45 1381.32 630.96 1381.68 631.25"/><polygon class="cls-7" points="1392.75 647.96 1456.23 573.44 1455.86 573.16 1392.39 647.69 1392.75 647.96"/><polygon class="cls-7" points="1411.07 666.21 1455.67 566.18 1455.23 566.02 1410.65 666.05 1411.07 666.21"/><polygon class="cls-7" points="1420.7 674.36 1444.02 568.06 1443.57 567.98 1420.24 674.26 1420.7 674.36"/><polygon class="cls-7" points="1451.44 673.78 1437.15 565.85 1436.69 565.9 1450.98 673.83 1451.44 673.78"/><polygon class="cls-7" points="1664.88 474.72 1725.03 544.27 1725.36 544.02 1665.22 474.47 1664.88 474.72"/><polygon class="cls-7" points="1671.83 465.82 1701.14 549.22 1701.56 549.1 1672.25 465.71 1671.83 465.82"/><polygon class="cls-7" points="1684.88 457.78 1714.95 543.53 1715.36 543.41 1685.29 457.66 1684.88 457.78"/><polygon class="cls-7" points="1695.75 451.38 1707.29 543.65 1707.72 543.6 1696.18 451.34 1695.75 451.38"/><polygon class="cls-7" points="1657.24 493.46 1702.44 543.87 1702.78 543.61 1657.57 493.2 1657.24 493.46"/><polygon class="cls-7" points="1649.74 506.78 1705.21 547.39 1705.48 547.08 1650.01 506.47 1649.74 506.78"/><polygon class="cls-7" points="1640.91 525.95 1703.02 549.9 1703.18 549.53 1641.08 525.58 1640.91 525.95"/><rect class="cls-7" x="1639.6" y="542.73" width="64" height="0.41"/><polygon class="cls-7" points="1639.81 559.66 1700.64 541.58 1700.5 541.2 1639.67 559.28 1639.81 559.66"/><polygon class="cls-7" points="1640.81 577.83 1720.09 554.27 1719.95 553.89 1640.67 577.44 1640.81 577.83"/><polygon class="cls-7" points="1652.45 619.07 1702.92 542.39 1702.55 542.18 1652.08 618.85 1652.45 619.07"/><polygon class="cls-7" points="1639.99 595.71 1703.52 548.67 1703.24 548.35 1639.72 595.38 1639.99 595.71"/><polygon class="cls-7" points="1649.16 608.43 1717.24 547.89 1716.94 547.6 1648.86 608.13 1649.16 608.43"/><polygon class="cls-7" points="1666.7 632.64 1725.95 550.31 1725.59 550.08 1666.34 632.4 1666.7 632.64"/><polygon class="cls-7" points="1675.49 639.5 1706.29 547.61 1705.88 547.49 1675.07 639.38 1675.49 639.5"/><polygon class="cls-7" points="1755.57 613.91 1726.43 549.48 1726.03 549.64 1755.16 614.07 1755.57 613.91"/><polygon class="cls-7" points="1763.68 601.35 1710.38 547.7 1710.05 547.99 1763.34 601.64 1763.68 601.35"/><polygon class="cls-7" points="1773.07 585.65 1711.8 548.27 1711.55 548.62 1772.82 586 1773.07 585.65"/><polygon class="cls-7" points="1779.66 571.57 1701.72 549.93 1701.6 550.33 1779.54 571.95 1779.66 571.57"/><polygon class="cls-7" points="1780.88 548.59 1726.41 544.18 1726.37 544.58 1780.84 548.99 1780.88 548.59"/><polygon class="cls-7" points="1780.02 535.07 1700.28 540.53 1700.31 540.94 1780.05 535.46 1780.02 535.07"/><polygon class="cls-7" points="1742.14 626.2 1700.8 548.8 1700.41 548.99 1741.74 626.37 1742.14 626.2"/><polygon class="cls-7" points="1736.73 635.66 1717.81 551.88 1717.38 551.97 1736.29 635.75 1736.73 635.66"/><polygon class="cls-7" points="1721.81 642.94 1705.21 549.8 1704.78 549.86 1721.38 643.01 1721.81 642.94"/><polygon class="cls-7" points="1711.66 645.47 1726.28 548.79 1725.85 548.74 1711.23 645.41 1711.66 645.47"/><polygon class="cls-7" points="1695.29 648.22 1700.53 546.03 1700.09 546.01 1694.86 648.18 1695.29 648.22"/><polygon class="cls-7" points="1687.15 647.23 1714.79 548.38 1714.36 548.28 1686.73 647.12 1687.15 647.23"/><polygon class="cls-7" points="1778.66 518.85 1729 546.39 1729.22 546.74 1778.89 519.21 1778.66 518.85"/><polygon class="cls-7" points="1779.53 501.47 1711.61 545.84 1711.86 546.18 1779.78 501.8 1779.53 501.47"/><polygon class="cls-7" points="1779.41 508.85 1702.62 539.67 1702.8 540.05 1779.59 509.22 1779.41 508.85"/><polygon class="cls-7" points="1775.29 484.7 1716.03 547.26 1716.36 547.52 1775.62 484.97 1775.29 484.7"/><polygon class="cls-7" points="1764.96 469.16 1705.41 538.22 1705.76 538.48 1765.3 469.41 1764.96 469.16"/><polygon class="cls-7" points="1747.85 452.18 1705.92 544.96 1706.33 545.11 1748.25 452.33 1747.85 452.18"/><polygon class="cls-7" points="1738.86 444.6 1716.83 543.24 1717.24 543.32 1739.29 444.69 1738.86 444.6"/><polygon class="cls-7" points="1710.09 445.07 1723.25 545.31 1723.68 545.26 1710.52 445.02 1710.09 445.07"/><path class="cls-7" d="M250.81,59.51a25.12,25.12,0,0,0,3-6.94c.68-2.56,1.79-4.45,2.22-6.24s0-3.86.17-5.31A40.06,40.06,0,0,0,257,36c0-1.71.69-9.41.69-11.3S256,17.23,256,17.23a9.14,9.14,0,0,0,1.2-4.62c-.09-2.57-2.23-5-5-7.1s-5.3-3.94-9.67-4.71A34.63,34.63,0,0,0,230,.37c-5.74.69-9,3.25-12.16,5.56s-5,4.2-6.33,7.36a32.19,32.19,0,0,0-2.22,8.48,21.23,21.23,0,0,0-.09,3.16,4.63,4.63,0,0,0-2.14-.09c-1,.26-1.88,1.63-2.31,3a14.21,14.21,0,0,0-.26,5.56c.26,2.32-.34,4.37.86,6.76s1.37,3.51,2.74,4.2a5.65,5.65,0,0,0,3,.43s.26,3.93.26,5.39.26,3,.17,5.56c-.06,1.77-.16,3.52-.21,4.45,8.86,6.25,22.08,7.25,34.35,6.73A62,62,0,0,0,250.81,59.51Z"/><path class="cls-7" d="M307.21,203.11s-1-3.08-1.88-5.39-2.66-4.11-2.83-6.08a6.39,6.39,0,0,0-1.11-3.17s-.6-5.82-.6-9.24-1.63-15.49-2.23-22.25-2.56-17.8-2.91-22.34-2-12.58-3.25-17.88a72.58,72.58,0,0,0-5-13.61,33.27,33.27,0,0,0-7.61-9.58c-2.91-2.31-13.52-8.39-15.92-10s-5.39-2.91-7.53-4.19-6.16-3.42-6.16-3.42A10.62,10.62,0,0,0,249,70.8c-1.37-3.08-3.51-3.68-3.51-3.68l.16-.2c-12-1.42-23.87-2.06-34.35-6.73,0,.42,0,.68,0,.68s-2.39-.17-3.51.78a16.54,16.54,0,0,0-4.36,5.13c-1.54,2.82-3.08,5-4.19,5S193.05,74,193.05,74s-5.39,2.56-14.38,7.19a137.15,137.15,0,0,1-19.51,8.21c-5.65,2-8,5.56-8.39,8.65s-4.79,15.06-6.68,18.82-5.81,8.22-9.92,12.16-9.93,9.92-10.78,17.28.17,8.9.17,8.9-2.4.69-2.91,2.74a6.11,6.11,0,0,0,0,3.42s-2.57,3.6-4.11,5.82-3.6,6.5-2.74,8.05,2.23,1.88,5.31,3.59a28.61,28.61,0,0,1,4.28,2.74s5.65,11.81,8.9,17.29,9.75,13.69,13,18.31,8.56,11.47,9.93,14.38a15.18,15.18,0,0,0,4.11,5,33.62,33.62,0,0,1,3.6,8.22c1.19,4.45.85,8.9,2.39,11.29s3.59,3.26,5,5.65,3.08,4.11,4.28,6,1.72,2.57,1.72,5.31.34,9.75.85,14.2,1.2,13.36.86,16.61,1,6.5.68,10.78-1.37,35.09-.51,42.79,1.53,17.12,2.56,21.91,2.74,10.61,2.74,18,1.2,13.18.52,16.09-1.55,12.83-2.4,22.08-2.23,21.9-2.74,29.95-.34,19-1.2,24.31.52,18.14.52,18.14-1.71,5.3-1.37,8.21,2.22,9.07,2.22,12.67.17,5.47,1.37,6.85a4.7,4.7,0,0,0,2.74,1.53s-.34,2.4-1,5.14-.77,5.56-1.37,6.84a20.68,20.68,0,0,0-1.37,4.2c-.34,1.54-1,3.59-1,3.59a3.37,3.37,0,0,0-.94,1.12,9.29,9.29,0,0,0-.26,4.53,5,5,0,0,0,2.82,3.17,25.33,25.33,0,0,0,9.93,2.74,115.93,115.93,0,0,0,16.26.25c4.37-.43,6.42-1.28,7.88-2.73s1-2.91.85-4.11a6.78,6.78,0,0,0-.68-2.92,6.24,6.24,0,0,1-1-3,26.46,26.46,0,0,0-.51-3.85c-.35-2.14-.52-2.57-.77-4.71a22.41,22.41,0,0,1-.78-4.44c-.17-2.49.86-3.26,1.72-5.4s2.65-5.05,3.93-9.33,1.2-4.1.86-6.07-.6-2.91-.26-3.85-.51-4.62,0-6.08a80,80,0,0,0,2.48-13c.34-4.36.43-19.42.43-23.53s1.2-25,1.63-29.19a143.74,143.74,0,0,0,.42-18.23c-.34-4.27-2.65-10.26-2.31-11.55s2.14-1.62,2.91-3.93-.17-2.83,1.29-6.93.34-7.45.68-9.5,1.72-4.45,1.89-6.42.51-17.2,1-22.25,1.12-9.16,1.12-9.16a29.28,29.28,0,0,1,.59,5.05,110.06,110.06,0,0,0-.68,13.78c.26,3.76-.26,13.09-.26,16.43s.43,7.28,1.29,8.9a8.71,8.71,0,0,0,2.91,2.82,22,22,0,0,1-1.2,5.91c-.94,2.06-3.51,5.39-3.17,8.64a25,25,0,0,1,.69,4.19c.08,1.89-.6,4-.69,5.4s1.54,3.59.94,4.53-2.39,3.43-2.39,5.74-1.2,11.3-1.71,15.15-1.55,14.71-2.14,20.53-.26,16.35-.26,22.85.26,16.69,1,20.11a33.74,33.74,0,0,1,.85,5.14,23.94,23.94,0,0,0-.34,4.79,16.81,16.81,0,0,0,1.8,5.82s-.43,2-.69,3.76-.43,5.65-.43,5.65a3.85,3.85,0,0,0-.76,1.72c-.18,1-1.12,5.21-.43,7.61s3.16,3.51,5.81,4,4,1.12,6.42,1.12,4.45-1.2,6.34.42,5.56,3.09,9,4.2,11.81,2.14,16.86,2a51.29,51.29,0,0,0,12-1.63c3.68-.85,5.22-1.62,5.65-4s-.77-2.82-.77-2.82l-1.37-2.57c-.68-1.28-.68-2.48-2.91-4.1s-5-1.89-7.11-3.77-5.13-3.6-6.84-5.48-5-5.64-4.71-9.15,1.46-15.24,2.49-18.83,2.14-5.82,2.31-8.05.43-16.85,1.11-23.53.86-17.63,1.2-22.51.34-14.55,1.45-18.23,1.37-10.52,2.57-14.46,2.91-9.5,1.37-16.34a30.07,30.07,0,0,1,.68-15.75c1-3.08,4-23.19,5.22-28.67s1.63-16.17,3-19.94,1.54-18.23,1.63-21.22,1.28-14.72,1.28-17.38-.43-35.08-.51-42.53-.69-16-2.57-21.82-4.28-8.05-4.62-10.36a32.6,32.6,0,0,1-.26-5,8.18,8.18,0,0,0,1.16.14,12.53,12.53,0,0,0,1.32-.14,12.39,12.39,0,0,0-.34-2.65c-.34-1.37-1.2-2.31-1.29-3.42s-1.53-3.08-1.36-4.19,5-5.82,6.24-6.68,5.57-2.57,8.39-2.48,9.33,2.48,12.15,2.74,3.17.25,3.51-.43S307.89,205.42,307.21,203.11ZM180.38,232.89a27.32,27.32,0,0,0-4.1-3.6c-2.06-1.36-7-4.45-8.22-5.82s-2.91-6.33-6.67-12.49-8.22-17.63-9.42-21.74-3.76-8.21-3.25-11,.68-4.28,1-7.19a68.12,68.12,0,0,1,1.54-7.36,24.46,24.46,0,0,0,5-1.88c1.2-.86,3.25-4.11,3.25-4.11l.86-1s.34,3.43.85,7.53,1.2,13.18,1.88,19.69,2.23,19,2.92,23.27,2.22,12.84,3.42,14.55A12.87,12.87,0,0,0,174.9,226a9.55,9.55,0,0,0,5.48.17Z"/><path class="cls-8" d="M270.07,260.87l-2.82-11s-9.42,9.84-18.23,20.62-10.19,13.18-10.19,13.18,8.47,10.27,18.83,21.91,10.7,11.64,10.7,11.64l3-1.8L273,298.78Z"/><path class="cls-9" d="M304.9,268.74s-9-9-15.41-16.86S276.32,236,276.32,236s-5.83,7.53-19.26,25.59-16,21.82-16,21.82,10.35,12.58,17,19.51,13.27,12.58,13.27,12.58Z"/><path class="cls-7" d="M259.42,42.64h-4.88l.79-8.73h.25a44.65,44.65,0,0,1,5.14.61c1.32.35,1.85.49,1.67,1.57l-.1.63a18.26,18.26,0,0,1-.65,3.11c-.21.66-1,2.8-2.22,2.8Zm-4.31-.51h4.31c.57,0,1.26-1,1.73-2.44a18.24,18.24,0,0,0,.64-3l.09-.63c.1-.6.06-.63-1.13-1a38.38,38.38,0,0,0-4.95-.62l-.69,7.68Z"/><path class="cls-7" d="M256.21,34.92s3.56.6,5.33,1c.89.2,1.93.15,1.83.6s.15,1.33-.54,1.92a2.44,2.44,0,0,1-1.14.64l.15-1.08s-5.68-1.24-5.88-1.24S256.21,34.92,256.21,34.92Z"/><path class="cls-10" d="M122.57,181.16a193.14,193.14,0,0,0,9.1,18.7c4.39,7.47,18.37,25,20.32,28.28s3.25,5.85,4.39,7.31,1.62-.16,3.9,4.55A25.72,25.72,0,0,1,163,250.08a11.29,11.29,0,0,0,2.44,7.32c2.27,2.76,4.39,5.36,7.15,8.45s3.25,3.74,3.25,3.74-1.79-5,.49-13.5c.83-3.1,2.27-6.33,2.2-7.17-.1-1.11-.9-1.67-.73-2.09.27-.69,1.77-.57,2-1.12.52-1.17,1-2.06,1.39-2.94,1.14-2.44,2-4.23,2-4.23s-2.77-6.34-5.85-8.78-8.3-5.2-10.24-8.12-2-5-4.88-9.76-7.32-15.6-8.94-20.15-4.88-11.7-4.88-11.7a16,16,0,0,0-11.7-6c-7.64-.32-9.92,0-12,1a29.77,29.77,0,0,0-3.09,1.63Z"/><path class="cls-10" d="M278.28,217.29s2.44,9,3,11.49,1.79,5.9,2.11,9,2.44,13.1,2.83,15.6,1.28,8.15.13,11.36-1.48,4.62-2.83,6A13.05,13.05,0,0,0,280,276.4a30.86,30.86,0,0,0-1.22,7.26c-.13,1.73.07,3.21-.13,4.68s-1,5.26-1.54,7.13a44.38,44.38,0,0,1-1.66,5.64c-.58,1.16-.26,2.31.7,2.38a4.59,4.59,0,0,0,3.34-1.48,7.68,7.68,0,0,0,1.28-1.8,14.84,14.84,0,0,0,2.25-4.42c.45-1.54.77-3.86,1.09-5s.78-1.09,1.6-1.21a2.62,2.62,0,0,1,2.25,1.34c.51.77,0,1.54-.26,2.76s-.92,4.18-1.89,4.68a4.9,4.9,0,0,1-2,.07l-2.4,3.52s3.14,1,4.49,1.68,1.67.9,2.89.32a15,15,0,0,0,4.23-2.89c1.61-1.54,4.3-4.49,6.87-6.22s3.66-2.44,4-4.11-.71-7.64-.64-9.63a16.23,16.23,0,0,0-1.09-5.26,30.27,30.27,0,0,1-.33-9.12c.39-2.37.9-3.2.84-4.87s-.84-3.85-1-6.29-.58-10.66-.45-15.21.06-9.57-.13-12.71-.45-7.32-.64-9.89-.39-3.33-.45-5.2a44.31,44.31,0,0,1,.19-4.62,24.65,24.65,0,0,0-7.77-1.41,17.47,17.47,0,0,0-9.94,3.66,19.57,19.57,0,0,0-4.37,4.69A2.49,2.49,0,0,0,278.28,217.29Z"/><path class="cls-7" d="M361.77,238.66s-.49,3.89,1,5.35a12.45,12.45,0,0,1,2.19,2.91s-2.31,3.89-.61,6.69a22.23,22.23,0,0,1,2.19,4.37s-1.46,7.41,1.22,10.09,6.31,6.32,8.5,8,3.77,3.16,4.13,3.28,6.69,3.16,6.69,3.16l-1.46,6.2s.85,12.4-.37,16.53-1.7,7.05-2.79,11.06-2.55,7.17-1.7,14,.24,8.75-1.1,11.55-5.95,22.6-6.93,29.53.61,11.67,2.07,17.38,2.55,10.45,3.28,14.7,3.4,25.4,3.53,35.48-.61,23.2-.73,31.11,1.82,33.29,1.45,37.79-1.94,9.48-1.33,13a72.74,72.74,0,0,1,.72,11A9.62,9.62,0,0,0,383.4,537s-4.25,2.18-7,3.77-8,5.83-12.28,6.56-5,2.68-5,4.25.12,3,.12,3-.85,2.31-.48,3.16,6.56,1.7,10.57,2.43,23.09-1.09,27.1-2.19,8.15-3.52,14.83-3.28c0,0,9.36-.73,12.76-2.55s2.55-1.94,2.31-3.16-.61-4.13-1.22-7.78-.85-5-1.33-6.93.24-2.92,1-4.74.85-6.19,1.21-10.32,1.59-22.6,1.34-30.38-2.67-21.61-2.31-27.82.37-20.17-.24-23.57-2.31-5.23-.85-9.6,4.25-10.21,6.08-16,2.67-12.4,3.88-17.5,2.55-15.79,3.53-22.23.85-23.45.85-23.45a35.38,35.38,0,0,0,3.65,6.68c1.82,2.31,3,5.47,2.67,10.58s1.09,13.24,1.21,16.4,1.95,12.64,1.71,16.89-.13,9.36,0,12.27a62.62,62.62,0,0,0,1.57,8.76s-4.37,4.61-5,8.62S446,437.6,446,437.6s-2.8,9.48-3.53,13.25-.73,12.51-1.7,21.5-.12,14.95-.73,24.43.49,17.74.25,21.87-.21,6.21-.4,7.36.19,2.38,1,2.51,2.76-.07,2.89,1.09-1.47,4-1.6,6.16a28.38,28.38,0,0,0,1,7.89c.51,1.42-1.16,4.43-1,5.72s-.07,3.46.19,4.75,3.08,2.31,3.47,2.89-.78,3.21-.13,4.49,4.81,4,12.71,3.85,13.73.13,17.33-1.48,4-3.34,3.72-5.2-1.54-3.4-2-5.06a17.42,17.42,0,0,0-2.89-6.17c-1.6-2.05-3.85-4.43-4.56-7.06s-1-3.72-1.86-5-1.09-2.06.58-1.8,5.58.45,7.25.83,2.31-.12,2.44-1.79,4.3-13.93,5.2-20.16,4-30.81,6.1-36.46,2.48-10.61,1.28-12.92-2.48-7.53-3-10.27-2.06-8.47-2.23-12.15-1.37-19.77-.51-25.16-1.63-15.57-.94-19.08S489,379.91,490,376.49s.43-17.72,0-19.69,1.46-6.58,2.23-9.58,2.82-11.38,4-14a15.06,15.06,0,0,0,.69-11c-1.46-4.53-.26-6.08.42-8.3a22.76,22.76,0,0,0,.86-7.7c-.09-3.17-3.25-10.7-2.74-13.1a22.36,22.36,0,0,1,4.28-8.38c1.88-2.14,5.82-6.17,6.85-8.31s.85-4.79,4.28-5.73,5.56-4,6.93-8,.94-12.58,1.62-16.35,2.74-8.13,5.22-9.07,2.91-4.2,3.34-8.65,1.11-18,1.11-24.47-2-22.93-3.51-29-5.9-18.91-6.5-24.13-3.34-15.23-5.48-19.17-8-10.53-12.83-13.1a76.34,76.34,0,0,0-18-6.5,70.89,70.89,0,0,1-13.44-4.36c-3-1.29-4.62-2.23-4.79-3.6s-1.71-5.39-3.17-6.25-2.22-1.88-3.42-2.13-1.71-.61-1.8-1.72a12.08,12.08,0,0,1,.6-5c.77-2.39,3.34-8.81,4.54-11.81A34.14,34.14,0,0,0,463.73,68a68.26,68.26,0,0,0-.68-13.86c-.6-3.25-4-9.84-6-12.92s-6.85-7.62-11.47-8.64a64,64,0,0,0-14.12-1.46c-4.11.09-10.44,2.23-12.75,3.17s-8.73,4.36-11.3,5.47A6.33,6.33,0,0,0,403.48,45c-.17,2.05.86,2.65,1.63,3.42a5.28,5.28,0,0,0,2,1.12,23.57,23.57,0,0,0-2.4,6.07c-.68,3.17.46,4.66-.6,7.53a11.45,11.45,0,0,0-.77,5c.26.94.69.94,1.46,2.56s.34,3.26.51,5.57a54.49,54.49,0,0,0,0,6.76c.26,2.39,1.54,4.19,2.4,6.76a75.16,75.16,0,0,1,3,12.24c.43,3.76,4.71,5.22,4.71,5.22s-2.14,5-3.68,5.82a81.14,81.14,0,0,1-8,3.51c-1.54.42-9.76,2.82-12.84,4.1a46.37,46.37,0,0,0-11.72,8.56c-2.14,2.48-6.24,5.82-6.67,8.13s-6.34,20.79-7.79,26.1-4.71,23-6.34,27.9-3.85,19.17-3.08,24.3,2.31,9.5,3.08,12.67S361.77,238.66,361.77,238.66Z"/><path class="cls-10" d="M385.59,288.73a44.16,44.16,0,0,1-3.41-4.25,14.35,14.35,0,0,1-2.06-5.84,19.19,19.19,0,0,1,5-5.35c3.53-2.67,7.41-5.83,7.41-5.83s4.62,7.17,6.69,9.84,7.05,7.54,6.68,7.3-4.49,2.06-9.6,1.82S385.59,288.73,385.59,288.73Z"/><path class="cls-10" d="M467.62,287.27s3.77-4.26,6.68-5.59,7.9-10.7,7.9-10.7a107.4,107.4,0,0,0,8.88,8,38.87,38.87,0,0,1,4.61,3.76s1.1,1.22-1,2.31-2.91,4.38-2.91,4.38-7.42-2.19-14.1-1.46S467.62,287.27,467.62,287.27Z"/><path class="cls-11" d="M144.48,191.59s1.7,12.33,4.5,28.28c1.09,6.19,4.48,22.81,4.23,25.87a71.47,71.47,0,0,0,.56,16.56c.6,4.44,3.52,20.77,4.26,24.68,1.05,5.49,6.75,27.48,7.15,31.59s7.14,21.45,7.61,23c.36,1.19,1.81-2.27,3-4.55.34-.69,1.27-1.41,1.55-2.73s-.11-5.67.34-9.58.57-26.59,2-35.93,2.19-29.62,1.14-34.94-1.14-8.39-3-14.93S171.63,227.15,171,221s-1.54-18.3-2.29-22.24-1.81-8.58-1.81-8.58l-2.43-4.5Z"/><path class="cls-7" d="M73,115.75s-18.3,9.35-24.11,11.1-13.88,2.31-18.1,6.79S20.48,151,19.53,157.77s.09,15.22-.59,21.34S54.31,283,54.31,283s-2.12,2.76-1.41,4.7,1.2,2.85.79,3.6a9.08,9.08,0,0,0-1.27,4.32c-.06,2.17-1.4,4.44-.93,6s-1.87,12-.87,12.89a7.37,7.37,0,0,0,2.65,1.36s.3,35.57-1.13,45.25-1.94,25.62-.61,32.82,6,29.85,6.75,33.58,1.36,6.18,1.32,7.58.07,2.31,1.08,2.59,6.56,2,6.56,2,.33,6.53.37,9.61-2.12,7.36-2,13.24.14,13.18-1.8,18.76-5.48,22.36-5,33,5.71,38.42,7.29,46.14,6.23,25.83,5.76,32.14c-.33,4.55,0,10.06.8,12.77s-.2,7.07-.2,7.07-2,1.87-4.72,4.1a25.43,25.43,0,0,0-5,6.51s-3.33.16-4.14,1.8-1.94,5.45-1,6.63,3.52,2.27,8.76,2.29,27.93.3,29.74-.42,1.12-3.42,1.12-3.42A37.06,37.06,0,0,0,98.63,624c.61-3.56-2-9.68-2.33-11.23s.46-6.61-1-10.28-2.54-12.78-2.8-17.14,3-38.61,4.66-49.44.37-32-.41-35.83S96.61,487.42,99.2,482s5.85-12.75,5.84-17.1S104,443,103.67,440.66s-.86-5.91-.86-5.91a11.87,11.87,0,0,0,6-1.75c2.35-1.73,4.59-2.57,4.88-4s-2.77-9.16-2.42-12.61.71-7.27,1.41-9.17a26.09,26.09,0,0,0,1-3.55s2.9,10.57,2.68,14,2.27,15,2.49,16.2A4.19,4.19,0,0,0,120.3,436s-.81,15.59-.93,19.55,4.47,23.66,3.52,29.91-3.7,13.84-5.2,30.69,2.13,29.48,2.29,37.54,1.75,33.7.18,39.67a38.52,38.52,0,0,0-.74,12.64s-1,.1-1.34,2.39a31,31,0,0,1-2,7.37c-1.09,2.78-1.72,11.46-1,13a10.38,10.38,0,0,0,1.59,2.48s-.19,2.55.56,3.21,10.08.92,13.16.62,40.75-.88,44.46-1,7.58-2.6,7.61-3.88a20.21,20.21,0,0,0-.56-4.11c-.33-1.93-3-5.84-6.63-7-2.7-.87-9-1.9-12.09-4s-11.05-7.47-14-10.11-7.07-3.65-6.92-8.76S146.46,563,149,554.5s8.56-22.67,9.25-43.12c.78-23-2.85-35.38-2.07-45.09l2-29.62a82.86,82.86,0,0,0,11.39-4.93,75.29,75.29,0,0,0,10.18-6.88c.65-.63,1.06-1.38.59-3.19s-2.56-22.71-2.23-30,0-29.16.1-36.2-6.29-26.65-8.51-34.13-8.2-27.61-9.47-32.51-8.78-19.94-10.69-24.86-5.66-22-6.2-25.88-.81-16.66-.48-24.07,1.09-16.22,1.09-16.22,8.57.12,13.5-2.56,9-6.4,12.52-8.48a99.77,99.77,0,0,1,9.48-5c1-.35.92-1.12.69-1.77s-6.09-11.17-8.37-16.73-4.37-12.79-8.05-18.65-5.55-7.32-5.55-7.32a6.75,6.75,0,0,0-2-2.49c-1.13-.67-9.75-3.34-11.52-4.15s-11.64-4.8-16.17-7.48a32.17,32.17,0,0,0-9.24-3.59l0-3.2s5.23.53,8.25-2.2,6.46-11.59,7.47-15.79A61.37,61.37,0,0,1,138,88.51c1.52-3.79.6-7.78.21-12s-.73-10.76-.73-10.76S153.09,61,152.21,51s-11.5-9.79-15.21-9.76-7.79-.35-7.79-.35S118,29,110.51,27.62s-20.45-.56-27.86,3.58S68.54,46.54,67.78,55.35,72.84,71.23,74,74.2s1.09,6.94,2.38,10.94a7.65,7.65,0,0,0,4.6,5s2.6,7.62.62,14.48S73,115.75,73,115.75Z"/><path class="cls-11" d="M41.76,131.09S35.21,145.58,34,152s-.85,12.08-3.71,16.78S14.65,198.4,11.09,203.76,1.11,219.18.38,221s-.45,3.57,1.35,6.52.68,12.13,3.63,16.65,16.44,16,28.15,24.32,34.35,22.61,38,24.76,7,5.83,9.12,3.5,10.63-8.58,18.8-14,23-21.88,27.07-28.76,10.54-17.11,10.54-17.11,9.12-9,5.22-9.75-14.19-11.48-18.49-16-21.88-17-36.28-26.77S48.29,159.93,45.28,158a33.93,33.93,0,0,0-6.06-3.07A20.61,20.61,0,0,1,41.29,148c1.81-3.54,6.05-15.19,7.66-18a42.12,42.12,0,0,0,2.17-4.21,7.5,7.5,0,0,0-4.45.39c-2.75,1-3.45,1.78-3.45,1.78Z"/><path class="cls-12" d="M40.94,154.61c-2.56-.07-6.07,3.41-7.87,6.77s-10.79,7.89-8.23,13.93,14.39,9.95,26.08,13,24.56,12.28,34.94,19.56,31.58,29.87,39.81,34.54,11-2.77,15.82-4.51,3.76-6.55-.37-11.44-11.48-10.21-17.29-16.17a128.26,128.26,0,0,0-26.52-21.72c-13.08-8-44.94-28-49.31-30.53A45.79,45.79,0,0,0,40.94,154.61Z"/><path class="cls-12" d="M79.66,284C77.31,282.35,56,269.31,47,263.09S9.38,234.76,6.71,232.47s-4.15-4.21-4.33-3.71a62.37,62.37,0,0,0,.56,10.6c.56,4.27,3.55,7.26,4.54,8.48a186.82,186.82,0,0,0,29.35,24c14.91,9.63,32.18,20.68,35.53,22.82s5.67,4.76,8.27,3.13,2.46-2.66,4.55-4.14a14.77,14.77,0,0,0,3.52-3.82Z"/><path class="cls-7" d="M547.61,581c0-1.18,1.17-5.09-1.56-8.61s.78-9.77-2.74-5.08-7,10.17-7,13.69,1.17,4.69-.39,6.25S532,590,532,592.33s.78.4-2.74,2.74-2,3.91-3.91,4.69-3.12,1.56-5.86,1.56-10.17.4-13.3,5.09-2,9.77-.39,12.9,3.13,6.25,11,7.82a72.21,72.21,0,0,0,18.77,1.18c4.69-.39,7.5-1.57,9.77-1.57,2,0,.49,4.46,2.35,5.08,2.34.78,14.86,1.57,23.85-.78s8.21-3.91,7-6.64a33.2,33.2,0,0,1-1.57-4.31s.78-10.56-.78-15.64-3.91-7.81-3.13-13.29,1.17-6.64.79-8.21l-.4-1.57a32.56,32.56,0,0,1-14.07,3.13C551.13,584.51,547.61,581,547.61,581Z"/><path class="cls-7" d="M554.25,492.24s-2.73,1.17-3.12,6.65S548.78,508.27,550,513s2.35,13.3.79,17.21-4.3,7-3.13,8.6l1.17,1.56s-2.34,2.74-1.17,5.47,3.52,4.7,1.56,7.05-3.51,7.81-3.91,10.16-2.73,14.07-2.34,18.37,3.12,5.48,10.16,7,17.2-2.73,17.2-2.73,4.3-3.92,4.3-8.21,4.31-5.87,2.75-9.39l-1.57-3.52s2-3.13.78-5.47l-1.17-2.35s1.56-.78,1.56-5.08S582,545.8,582,540.72s-2-11.33,0-14.86,6.65-10.94,6.65-15.24,2-14.08,0-14.86-8.21,0-19.16-2S554.25,492.24,554.25,492.24Z"/><path class="cls-7" d="M531.47,584.42a1.81,1.81,0,0,1-1.5-.67c-1.58-2.07,2.14-7.6,2.9-8.69,2.46-3.51,6.56-3,8.4-2.23l-.62,1.48c-.16-.07-4.14-1.65-6.46,1.68s-3.33,6.27-2.94,6.78c0,0,.33.13,1.23-.19a8.58,8.58,0,0,0,5-5.32l1.55.42a10.13,10.13,0,0,1-6,6.42A4.81,4.81,0,0,1,531.47,584.42Z"/><path class="cls-7" d="M556.2,432a40.93,40.93,0,0,1-.77,12.9c-1.57,6.26-.78,13.29.39,18.38s0,16-.78,20.72-1.56,11.73-1.56,11.73l34,5.87s2-19.55.79-28.94,0-12.9,2-20.72,1.56-12.12,2.35-20.33.78-11.34.78-11.34Z"/><path class="cls-7" d="M624.63,410.53s2.35,23.46,4.3,29.32,5.86,12.12,8.21,17.6,7,15.24,7.82,21.5,0,8.6,1.17,8.6,3.13,5.87,16.42,3.13,14.08-7,14.08-7-2.35-20.72-7.82-31.28-11.73-19.55-11.73-28.93V398Z"/><path class="cls-7" d="M646.91,484c-2-.39-3.52,0-3.52,2.74s2.35,6.26,2.35,10.16,3.91,8.61,5.08,10.95,1.17,7.43,1.17,10.17.78,7.42,2.35,9.77,3.91,5.08,3.52,6.64-3.91,5.09-3.13,6.65,3.91,6.26,2.74,8.21a10.28,10.28,0,0,0,0,9l1.56,3.12s8.61,5.08,12.12,5.08,8.61.79,10.56-2.34l1.95-3.13s5.09,1.57,5.09-4.3a16.79,16.79,0,0,0-3.13-9.77s2.73-5.08.78-7l-2-2s1.57-2.75-.39-4.3l-1.95-1.57s3.52-3.91,1.95-5.87l-1.56-2s2.74-.78-.78-11.34-.39-24.24-2-30.89-3.52-5.86-3.52-5.86-2,3.12-14.85,6.25S646.91,484,646.91,484Z"/><path class="cls-7" d="M658.65,558.48s-1.21.67-1.88,3.89a34.61,34.61,0,0,0-.4,7.5,25.78,25.78,0,0,0-1.07,4l-.13,1.35a14,14,0,0,0-5.23,2.94c-2,2-3.88,4.42-2.81,8s.53,7,1.21,9.25,4.82,5.49,10,6.29,6,.81,6,.81-.4,3.21.94,4.55,3.08,4.42,9.24,4.82,15.68-.13,16.88-2.68.81-6,.54-9-.13-3.62-.94-4.55l-.8-.94s1.87-2.95-1.61-9.11-1.88-8.71-1.34-11.13-.14-2.95,0-4.82,2-2.14,1.08-5.09a16.58,16.58,0,0,0-2.95-5.22l-10.86.8Z"/><path class="cls-13" d="M566,255.18c-.41,4.83-2.55,12.46-4.56,23.32s-8.31,28.4-9.11,30.67-5.09,16.35-5.49,17.55a23.9,23.9,0,0,0,0,8.31c.53,2.81-.27,8.84-.67,11.12s-2.55,10.85-2.68,13.53.8,8.7,2,10.58,2.27,2.41.93,3.89-4.95-2.82-6.29-5.77-1.75-7-2.14-6.69-.41,4.95.53,7.63a10.41,10.41,0,0,0,4,5.36c1.34.81,1.87,2.14.81,3.22s-4.69-1.21-4.69-1.21l.93,1.34c.94,1.34.81,1.74-.53,2.15s-6-2-6-2a7,7,0,0,1-2-.4,7.67,7.67,0,0,1-3.75-2.14c-1.21-1.34-3.08-2.42-3.08-4.83V360.21a36,36,0,0,1,2.27-11.52c1.61-4.15,4.43-14.2,4.56-18.09s.67-9.24,2.14-13,5.89-37,7.37-52.51,4.82-17.15,5.22-23.71.67-25,2-33.09.14-26.53.14-26.53,4.56,0,9.51,4,9.51,6,12.33,7.9a8.52,8.52,0,0,1,3.48,4.43s-1.21,15.81-2.81,27.06-1.61,19.56-3.35,22.5S566,255.18,566,255.18Z"/><path class="cls-7" d="M617.8,55.18s-2.55-3.36-4.56-3.09l-2,.27s-2.68-.54-3.35,1.61-1.6,3.48.81,8,6,7.37,7.77,7.63,3.75-.13,3.61-1.47-.8-.14-.53-3.22.67-4.28.13-6.29A9.28,9.28,0,0,0,617.8,55.18Z"/><path class="cls-7" d="M621.42,55.31c2-.81,5.22-3.75,5.22-3.75s-8.58,4.28-9,4.28,0,9.79,0,9.79,5.5-1.21,7-.81,3.08,4.29,2.82,9.52-2.82,10.44-2.15,16.07-2,12.73-2.81,15.14c0,0,1.87-2.55,3.48-5s3.75-5.09,3.75-8.3V89.07s3.21,10.45,1.07,19.56-1.87,5.89-2.95,13.93-2.68,8.58-2.68,8.58,4.29,4,5.63-4.29A115.52,115.52,0,0,1,633.47,114a87,87,0,0,1,2.41,21.43c0,12.86-3.21,11-2.41,22.24s.21,16.63.53,16.07c0,0,1.88-7,3.49-13.39s3.26-7.63,3.26-7.63,3.43,9,.49,17.81l-3,8.84s13.93-20.63,13.4-38-5.09-31.35-5.9-41.27.54-14.73-3.75-23.84-5.62-12.6-9.11-16.34a17.5,17.5,0,0,0-7.5-4.83Z"/><path class="cls-7" d="M609.89,55.31s-8.84-7-18.22-5.36-11.52,5.36-11.52,5.36-3.48-2.41-11,2.41-11,10.45-11.53,16.62.54,9.1.54,9.1,3.22,3.48,3.48,5.09-1.93,6.34-1.93,6.34-2,2.39-3.28,4.1a3.06,3.06,0,0,0,.41,3.9,8.2,8.2,0,0,0,3.93,1.54,5.69,5.69,0,0,1-.7,3.31c-1,1.71,1.41,2.41,1.41,2.41s-.86.18-1,1.76c0,.7,1.15,2.56,1.05,3.67s-1.21,4.82,2.31,6.83,6.23.61,8.64.91,3.42-1,3.92.4.4,3.82.2,8.84a18.36,18.36,0,0,0,1.4,8.24L602,145.2l11.85-3.62,4.42-3.82a31.19,31.19,0,0,1-7.83-6.62c-3.92-4.53-4.13-10.25-4.72-12.57a21.11,21.11,0,0,1-.61-4.72,17.71,17.71,0,0,0,6.63-4.72c2.82-3.32,8.54-3,11-10.35s3.41-13.67,2.2-19.69-7.53-13.27-7.53-13.27L612,58.19Z"/><path class="cls-7" d="M559.79,301.54l-4,21.7s-4,4-4,16.07-3.29,46.17-.42,66.47.61,30.36.81,31.39-.2,1,3.49.82a59.45,59.45,0,0,0,9.64-1.24c1.23-.4,13.13-1.84,16-3.48s6.56-3.69,9.23-3.69,10.46-.62,13.33-1.44a15.36,15.36,0,0,0,5.53-3.49s7.8-2,10.88-2,8.4-.21,13.53.2,9.84-.41,10.26-2.05a5.58,5.58,0,0,0,0-2.87s7.17-.41,12.3-.82,11.28-2.87,12.31-3.69a2.86,2.86,0,0,0,1-2.05s15.38-1.24,16.41-1.85,1-3.49,1-3.49,3.48-1.64,3.48-3.48-12.92-44.3-17-55.17-6.56-12.93-9-20.92-5.33-16.41-7.17-18.66l-3.7-4.52s-22.76-1.84-36.5-1.84-29.74,2.25-41.23,2.66S559.79,301.54,559.79,301.54Z"/><path class="cls-7" d="M583.11,132.19c-2.25-.41-7,1-11.69,3.7s-16.82,5.12-20.51,7-8.61,13.53-8.61,17.84-4.1,14.56-4.92,18.66-.82,3.9,1.84,5.13,8.61,3.49,13.13,7.18,9,12.1,9,12.1-3.69,39-3.28,50.86-6.15,26.87-5.33,35.08,3.28,12.51,3.28,15-.2,4.72,1.23,4.51,8.2-2.67,14.15-2.87,24.81-1.23,31.38-1.64,20.92-.41,25.64-.41h22.15c1.43,0,4.31.82,5.13-.41s-.83-2.25-1-4.1-1.64-7.39-1.64-7.39-6.76-15.38-6.56-24.61-1.44-34.86-1-43.07-.41-29.94,2.26-38.55,2.46-20.36-3.07-29.13c-7.39-11.68-13.54-20.09-22.36-22.14-7.39-1.72-6.15,1.22-13.95.61s-20.09-3.28-21.53-3.28Z"/><path class="cls-7" d="M611,132.25s14.15-.21,22.56,8.82,13.53,24,15.79,26.66l2.25,2.66-8.2.42A59,59,0,0,1,630.29,155c-6.15-10.46-7-12.92-10.66-16s-5.54-2.67-5.54-2.67Z"/><path class="cls-7" d="M659.62,169.32c-1.43-1.23-3.48-2.67-3.89-5.33a6.07,6.07,0,0,1,1.64-5.34c1-1.23,2.25-.82,4.1-1.43s3.9-.82,6.15,2.05,4.52,8.61,4.52,8.61l-4.72-1.23s1.84,3.08.41,3.08S659.62,169.32,659.62,169.32Z"/><path class="cls-11" d="M662.5,164.19s-10.88.41-15.8,1-6.55,2.05-8.61,7.38-5.75,13.54-7.8,24.2-9.63,23.59-6.76,31.59-3.29,15-2.67,24.4,3.08,9.23,2.46,13.33-1.23,9.23-1.23,9.23a8.42,8.42,0,0,0-3.28,3.49c-1,2.26-2.46,6.15-1.85,7.59a14.85,14.85,0,0,0,2.06,3.08s-.62,4.92-2.67,13.74-5.54,28.09-5.54,28.09h6s3.9-20.1,4.92-27.48,3.49-14.76,3.29-15.79-.42-5.33-1-6.77,1.44-3.28,1.44-6.15v-8s4.5,8,4.71,11.48,2,4.72,2.87,7.59,3.49,3.9,5.95,4.52,9.43,3.69,14.77,6.15,9,2.46,14.56,3.07,11.48-4.71,14.56-9.43,16.41-17.43,17.84-29.33,4.72-13.54,4.93-18.87-.21-15.79-1.85-17.22a9.07,9.07,0,0,1-2.05-2.26s1.64-.62,3.07-6.15.21-10.26,0-14.56,1.65-4.93-1.43-9.85-5.75-7.59-6.77-10.46,0-5.33-2.87-7.18-7.18-3.07-7.79-2.66-1,1.64-2.88.61-7-4.1-9-4.72S662.5,164.19,662.5,164.19Z"/><path class="cls-7" d="M675.21,224.7s1.44-3.29-.82-14.56-.62-22.16-.82-26.87-.2-7.39,1.64-9.44a15.42,15.42,0,0,1,4.71-3.28l2.47,1.23a9.78,9.78,0,0,0-4.72,3.9c-2,3.08-1,7.18-1,12.1s-.2,13.33.83,18.46a75.3,75.3,0,0,1,1.64,11.89,25.38,25.38,0,0,1-1,7.8Z"/><path class="cls-7" d="M705,196.19c-1.44-1.23-6.77,1.44-10.87,2.26s-4.31.81-4.31,3.48.82,8.82.82,9.85,5.95-1.44,8.82-2.47,7,.41,6.56-1.23-2.66-1-1.23-5.94S705,196.19,705,196.19Z"/><path class="cls-7" d="M705.36,244.18s-7.18-.41-10.66-.82a58.55,58.55,0,0,1-8.62-2.05l.62-2.46s5.13,1,10.46,1.64,8.2.82,8.2.82Z"/></g></g></svg>